<mxfile host="app.diagrams.net" modified="2022-04-07T11:55:21.036Z" agent="5.0 (Windows NT 10.0; Win64; x64) AppleWebKit/537.36 (KHTML, like Gecko) Chrome/100.0.4896.60 Safari/537.36 Edg/100.0.1185.29" etag="JvJZDOkAqhWuzmJWIHgI" version="17.4.0" type="github" pages="2">
  <diagram id="R2lEEEUBdFMjLlhIrx00" name="ERD">
    <mxGraphModel dx="931" dy="1184" grid="1" gridSize="10" guides="1" tooltips="1" connect="1" arrows="1" fold="1" page="1" pageScale="1" pageWidth="850" pageHeight="1100" math="0" shadow="0" extFonts="Permanent Marker^https://fonts.googleapis.com/css?family=Permanent+Marker">
      <root>
        <mxCell id="0" />
        <mxCell id="1" parent="0" />
        <mxCell id="C-vyLk0tnHw3VtMMgP7b-1" value="" style="edgeStyle=entityRelationEdgeStyle;endArrow=ERoneToMany;startArrow=ERone;endFill=0;startFill=0;" parent="1" source="C-vyLk0tnHw3VtMMgP7b-24" target="C-vyLk0tnHw3VtMMgP7b-6" edge="1">
          <mxGeometry width="100" height="100" relative="1" as="geometry">
            <mxPoint x="340" y="720" as="sourcePoint" />
            <mxPoint x="440" y="620" as="targetPoint" />
          </mxGeometry>
        </mxCell>
        <mxCell id="C-vyLk0tnHw3VtMMgP7b-2" value="Breakdowns" style="shape=table;startSize=30;container=1;collapsible=1;childLayout=tableLayout;fixedRows=1;rowLines=0;fontStyle=1;align=center;resizeLast=1;" parent="1" vertex="1">
          <mxGeometry x="450" y="120" width="280" height="430" as="geometry" />
        </mxCell>
        <mxCell id="C-vyLk0tnHw3VtMMgP7b-3" value="" style="shape=partialRectangle;collapsible=0;dropTarget=0;pointerEvents=0;fillColor=none;points=[[0,0.5],[1,0.5]];portConstraint=eastwest;top=0;left=0;right=0;bottom=1;" parent="C-vyLk0tnHw3VtMMgP7b-2" vertex="1">
          <mxGeometry y="30" width="280" height="30" as="geometry" />
        </mxCell>
        <mxCell id="C-vyLk0tnHw3VtMMgP7b-4" value="PK" style="shape=partialRectangle;overflow=hidden;connectable=0;fillColor=none;top=0;left=0;bottom=0;right=0;fontStyle=1;" parent="C-vyLk0tnHw3VtMMgP7b-3" vertex="1">
          <mxGeometry width="30" height="30" as="geometry">
            <mxRectangle width="30" height="30" as="alternateBounds" />
          </mxGeometry>
        </mxCell>
        <mxCell id="C-vyLk0tnHw3VtMMgP7b-5" value="Id  int  IDENTITY  NOT NULL" style="shape=partialRectangle;overflow=hidden;connectable=0;fillColor=none;top=0;left=0;bottom=0;right=0;align=left;spacingLeft=6;fontStyle=5;" parent="C-vyLk0tnHw3VtMMgP7b-3" vertex="1">
          <mxGeometry x="30" width="250" height="30" as="geometry">
            <mxRectangle width="250" height="30" as="alternateBounds" />
          </mxGeometry>
        </mxCell>
        <mxCell id="C-vyLk0tnHw3VtMMgP7b-6" value="" style="shape=partialRectangle;collapsible=0;dropTarget=0;pointerEvents=0;fillColor=none;points=[[0,0.5],[1,0.5]];portConstraint=eastwest;top=0;left=0;right=0;bottom=0;" parent="C-vyLk0tnHw3VtMMgP7b-2" vertex="1">
          <mxGeometry y="60" width="280" height="30" as="geometry" />
        </mxCell>
        <mxCell id="C-vyLk0tnHw3VtMMgP7b-7" value="FK1" style="shape=partialRectangle;overflow=hidden;connectable=0;fillColor=none;top=0;left=0;bottom=0;right=0;" parent="C-vyLk0tnHw3VtMMgP7b-6" vertex="1">
          <mxGeometry width="30" height="30" as="geometry">
            <mxRectangle width="30" height="30" as="alternateBounds" />
          </mxGeometry>
        </mxCell>
        <mxCell id="C-vyLk0tnHw3VtMMgP7b-8" value="TransactionId  int  NOT NULL" style="shape=partialRectangle;overflow=hidden;connectable=0;fillColor=none;top=0;left=0;bottom=0;right=0;align=left;spacingLeft=6;" parent="C-vyLk0tnHw3VtMMgP7b-6" vertex="1">
          <mxGeometry x="30" width="250" height="30" as="geometry">
            <mxRectangle width="250" height="30" as="alternateBounds" />
          </mxGeometry>
        </mxCell>
        <mxCell id="C-vyLk0tnHw3VtMMgP7b-9" value="" style="shape=partialRectangle;collapsible=0;dropTarget=0;pointerEvents=0;fillColor=none;points=[[0,0.5],[1,0.5]];portConstraint=eastwest;top=0;left=0;right=0;bottom=0;" parent="C-vyLk0tnHw3VtMMgP7b-2" vertex="1">
          <mxGeometry y="90" width="280" height="30" as="geometry" />
        </mxCell>
        <mxCell id="C-vyLk0tnHw3VtMMgP7b-10" value="FK?" style="shape=partialRectangle;overflow=hidden;connectable=0;fillColor=none;top=0;left=0;bottom=0;right=0;" parent="C-vyLk0tnHw3VtMMgP7b-9" vertex="1">
          <mxGeometry width="30" height="30" as="geometry">
            <mxRectangle width="30" height="30" as="alternateBounds" />
          </mxGeometry>
        </mxCell>
        <mxCell id="C-vyLk0tnHw3VtMMgP7b-11" value="FinancialTransactionId  int  NOT NULL" style="shape=partialRectangle;overflow=hidden;connectable=0;fillColor=none;top=0;left=0;bottom=0;right=0;align=left;spacingLeft=6;" parent="C-vyLk0tnHw3VtMMgP7b-9" vertex="1">
          <mxGeometry x="30" width="250" height="30" as="geometry">
            <mxRectangle width="250" height="30" as="alternateBounds" />
          </mxGeometry>
        </mxCell>
        <mxCell id="IbfQNz88X3Z1XtLspUI8-31" value="" style="shape=partialRectangle;collapsible=0;dropTarget=0;pointerEvents=0;fillColor=none;points=[[0,0.5],[1,0.5]];portConstraint=eastwest;top=0;left=0;right=0;bottom=0;" vertex="1" parent="C-vyLk0tnHw3VtMMgP7b-2">
          <mxGeometry y="120" width="280" height="30" as="geometry" />
        </mxCell>
        <mxCell id="IbfQNz88X3Z1XtLspUI8-32" value="FK?" style="shape=partialRectangle;overflow=hidden;connectable=0;fillColor=none;top=0;left=0;bottom=0;right=0;" vertex="1" parent="IbfQNz88X3Z1XtLspUI8-31">
          <mxGeometry width="30" height="30" as="geometry">
            <mxRectangle width="30" height="30" as="alternateBounds" />
          </mxGeometry>
        </mxCell>
        <mxCell id="IbfQNz88X3Z1XtLspUI8-33" value="OwnerId  int  NOT NULL" style="shape=partialRectangle;overflow=hidden;connectable=0;fillColor=none;top=0;left=0;bottom=0;right=0;align=left;spacingLeft=6;" vertex="1" parent="IbfQNz88X3Z1XtLspUI8-31">
          <mxGeometry x="30" width="250" height="30" as="geometry">
            <mxRectangle width="250" height="30" as="alternateBounds" />
          </mxGeometry>
        </mxCell>
        <mxCell id="IbfQNz88X3Z1XtLspUI8-34" value="" style="shape=partialRectangle;collapsible=0;dropTarget=0;pointerEvents=0;fillColor=none;points=[[0,0.5],[1,0.5]];portConstraint=eastwest;top=0;left=0;right=0;bottom=0;" vertex="1" parent="C-vyLk0tnHw3VtMMgP7b-2">
          <mxGeometry y="150" width="280" height="30" as="geometry" />
        </mxCell>
        <mxCell id="IbfQNz88X3Z1XtLspUI8-35" value="FK?" style="shape=partialRectangle;overflow=hidden;connectable=0;fillColor=none;top=0;left=0;bottom=0;right=0;" vertex="1" parent="IbfQNz88X3Z1XtLspUI8-34">
          <mxGeometry width="30" height="30" as="geometry">
            <mxRectangle width="30" height="30" as="alternateBounds" />
          </mxGeometry>
        </mxCell>
        <mxCell id="IbfQNz88X3Z1XtLspUI8-36" value="SectionId  int  NULL" style="shape=partialRectangle;overflow=hidden;connectable=0;fillColor=none;top=0;left=0;bottom=0;right=0;align=left;spacingLeft=6;" vertex="1" parent="IbfQNz88X3Z1XtLspUI8-34">
          <mxGeometry x="30" width="250" height="30" as="geometry">
            <mxRectangle width="250" height="30" as="alternateBounds" />
          </mxGeometry>
        </mxCell>
        <mxCell id="IbfQNz88X3Z1XtLspUI8-37" value="" style="shape=partialRectangle;collapsible=0;dropTarget=0;pointerEvents=0;fillColor=none;points=[[0,0.5],[1,0.5]];portConstraint=eastwest;top=0;left=0;right=0;bottom=0;" vertex="1" parent="C-vyLk0tnHw3VtMMgP7b-2">
          <mxGeometry y="180" width="280" height="30" as="geometry" />
        </mxCell>
        <mxCell id="IbfQNz88X3Z1XtLspUI8-38" value="" style="shape=partialRectangle;overflow=hidden;connectable=0;fillColor=none;top=0;left=0;bottom=0;right=0;" vertex="1" parent="IbfQNz88X3Z1XtLspUI8-37">
          <mxGeometry width="30" height="30" as="geometry">
            <mxRectangle width="30" height="30" as="alternateBounds" />
          </mxGeometry>
        </mxCell>
        <mxCell id="IbfQNz88X3Z1XtLspUI8-39" value="ContributionType  int  NULL" style="shape=partialRectangle;overflow=hidden;connectable=0;fillColor=none;top=0;left=0;bottom=0;right=0;align=left;spacingLeft=6;" vertex="1" parent="IbfQNz88X3Z1XtLspUI8-37">
          <mxGeometry x="30" width="250" height="30" as="geometry">
            <mxRectangle width="250" height="30" as="alternateBounds" />
          </mxGeometry>
        </mxCell>
        <mxCell id="IbfQNz88X3Z1XtLspUI8-40" value="" style="shape=partialRectangle;collapsible=0;dropTarget=0;pointerEvents=0;fillColor=none;points=[[0,0.5],[1,0.5]];portConstraint=eastwest;top=0;left=0;right=0;bottom=0;" vertex="1" parent="C-vyLk0tnHw3VtMMgP7b-2">
          <mxGeometry y="210" width="280" height="30" as="geometry" />
        </mxCell>
        <mxCell id="IbfQNz88X3Z1XtLspUI8-41" value="" style="shape=partialRectangle;overflow=hidden;connectable=0;fillColor=none;top=0;left=0;bottom=0;right=0;" vertex="1" parent="IbfQNz88X3Z1XtLspUI8-40">
          <mxGeometry width="30" height="30" as="geometry">
            <mxRectangle width="30" height="30" as="alternateBounds" />
          </mxGeometry>
        </mxCell>
        <mxCell id="IbfQNz88X3Z1XtLspUI8-42" value="ChangeInHolding  decimal(19, 16) NULL" style="shape=partialRectangle;overflow=hidden;connectable=0;fillColor=none;top=0;left=0;bottom=0;right=0;align=left;spacingLeft=6;" vertex="1" parent="IbfQNz88X3Z1XtLspUI8-40">
          <mxGeometry x="30" width="250" height="30" as="geometry">
            <mxRectangle width="250" height="30" as="alternateBounds" />
          </mxGeometry>
        </mxCell>
        <mxCell id="IbfQNz88X3Z1XtLspUI8-43" value="" style="shape=partialRectangle;collapsible=0;dropTarget=0;pointerEvents=0;fillColor=none;points=[[0,0.5],[1,0.5]];portConstraint=eastwest;top=0;left=0;right=0;bottom=0;" vertex="1" parent="C-vyLk0tnHw3VtMMgP7b-2">
          <mxGeometry y="240" width="280" height="30" as="geometry" />
        </mxCell>
        <mxCell id="IbfQNz88X3Z1XtLspUI8-44" value="" style="shape=partialRectangle;overflow=hidden;connectable=0;fillColor=none;top=0;left=0;bottom=0;right=0;" vertex="1" parent="IbfQNz88X3Z1XtLspUI8-43">
          <mxGeometry width="30" height="30" as="geometry">
            <mxRectangle width="30" height="30" as="alternateBounds" />
          </mxGeometry>
        </mxCell>
        <mxCell id="IbfQNz88X3Z1XtLspUI8-45" value="Value  decimal(19,16) NULL" style="shape=partialRectangle;overflow=hidden;connectable=0;fillColor=none;top=0;left=0;bottom=0;right=0;align=left;spacingLeft=6;" vertex="1" parent="IbfQNz88X3Z1XtLspUI8-43">
          <mxGeometry x="30" width="250" height="30" as="geometry">
            <mxRectangle width="250" height="30" as="alternateBounds" />
          </mxGeometry>
        </mxCell>
        <mxCell id="IbfQNz88X3Z1XtLspUI8-46" value="" style="shape=partialRectangle;collapsible=0;dropTarget=0;pointerEvents=0;fillColor=none;points=[[0,0.5],[1,0.5]];portConstraint=eastwest;top=0;left=0;right=0;bottom=0;" vertex="1" parent="C-vyLk0tnHw3VtMMgP7b-2">
          <mxGeometry y="270" width="280" height="30" as="geometry" />
        </mxCell>
        <mxCell id="IbfQNz88X3Z1XtLspUI8-47" value="FK?" style="shape=partialRectangle;overflow=hidden;connectable=0;fillColor=none;top=0;left=0;bottom=0;right=0;" vertex="1" parent="IbfQNz88X3Z1XtLspUI8-46">
          <mxGeometry width="30" height="30" as="geometry">
            <mxRectangle width="30" height="30" as="alternateBounds" />
          </mxGeometry>
        </mxCell>
        <mxCell id="IbfQNz88X3Z1XtLspUI8-48" value="TargetInvestmentId  int  NULL" style="shape=partialRectangle;overflow=hidden;connectable=0;fillColor=none;top=0;left=0;bottom=0;right=0;align=left;spacingLeft=6;" vertex="1" parent="IbfQNz88X3Z1XtLspUI8-46">
          <mxGeometry x="30" width="250" height="30" as="geometry">
            <mxRectangle width="250" height="30" as="alternateBounds" />
          </mxGeometry>
        </mxCell>
        <mxCell id="IbfQNz88X3Z1XtLspUI8-49" value="" style="shape=partialRectangle;collapsible=0;dropTarget=0;pointerEvents=0;fillColor=none;points=[[0,0.5],[1,0.5]];portConstraint=eastwest;top=0;left=0;right=0;bottom=0;" vertex="1" parent="C-vyLk0tnHw3VtMMgP7b-2">
          <mxGeometry y="300" width="280" height="30" as="geometry" />
        </mxCell>
        <mxCell id="IbfQNz88X3Z1XtLspUI8-50" value="" style="shape=partialRectangle;overflow=hidden;connectable=0;fillColor=none;top=0;left=0;bottom=0;right=0;" vertex="1" parent="IbfQNz88X3Z1XtLspUI8-49">
          <mxGeometry width="30" height="30" as="geometry">
            <mxRectangle width="30" height="30" as="alternateBounds" />
          </mxGeometry>
        </mxCell>
        <mxCell id="IbfQNz88X3Z1XtLspUI8-51" value="Status  int  NOT NULL" style="shape=partialRectangle;overflow=hidden;connectable=0;fillColor=none;top=0;left=0;bottom=0;right=0;align=left;spacingLeft=6;" vertex="1" parent="IbfQNz88X3Z1XtLspUI8-49">
          <mxGeometry x="30" width="250" height="30" as="geometry">
            <mxRectangle width="250" height="30" as="alternateBounds" />
          </mxGeometry>
        </mxCell>
        <mxCell id="IbfQNz88X3Z1XtLspUI8-52" value="" style="shape=partialRectangle;collapsible=0;dropTarget=0;pointerEvents=0;fillColor=none;points=[[0,0.5],[1,0.5]];portConstraint=eastwest;top=0;left=0;right=0;bottom=0;" vertex="1" parent="C-vyLk0tnHw3VtMMgP7b-2">
          <mxGeometry y="330" width="280" height="30" as="geometry" />
        </mxCell>
        <mxCell id="IbfQNz88X3Z1XtLspUI8-53" value="" style="shape=partialRectangle;overflow=hidden;connectable=0;fillColor=none;top=0;left=0;bottom=0;right=0;" vertex="1" parent="IbfQNz88X3Z1XtLspUI8-52">
          <mxGeometry width="30" height="30" as="geometry">
            <mxRectangle width="30" height="30" as="alternateBounds" />
          </mxGeometry>
        </mxCell>
        <mxCell id="IbfQNz88X3Z1XtLspUI8-54" value="AccountingSplit  int  NULL" style="shape=partialRectangle;overflow=hidden;connectable=0;fillColor=none;top=0;left=0;bottom=0;right=0;align=left;spacingLeft=6;" vertex="1" parent="IbfQNz88X3Z1XtLspUI8-52">
          <mxGeometry x="30" width="250" height="30" as="geometry">
            <mxRectangle width="250" height="30" as="alternateBounds" />
          </mxGeometry>
        </mxCell>
        <mxCell id="IbfQNz88X3Z1XtLspUI8-55" value="" style="shape=partialRectangle;collapsible=0;dropTarget=0;pointerEvents=0;fillColor=none;points=[[0,0.5],[1,0.5]];portConstraint=eastwest;top=0;left=0;right=0;bottom=0;" vertex="1" parent="C-vyLk0tnHw3VtMMgP7b-2">
          <mxGeometry y="360" width="280" height="30" as="geometry" />
        </mxCell>
        <mxCell id="IbfQNz88X3Z1XtLspUI8-56" value="" style="shape=partialRectangle;overflow=hidden;connectable=0;fillColor=none;top=0;left=0;bottom=0;right=0;" vertex="1" parent="IbfQNz88X3Z1XtLspUI8-55">
          <mxGeometry width="30" height="30" as="geometry">
            <mxRectangle width="30" height="30" as="alternateBounds" />
          </mxGeometry>
        </mxCell>
        <mxCell id="IbfQNz88X3Z1XtLspUI8-57" value="Creator  int  NOT NULL" style="shape=partialRectangle;overflow=hidden;connectable=0;fillColor=none;top=0;left=0;bottom=0;right=0;align=left;spacingLeft=6;" vertex="1" parent="IbfQNz88X3Z1XtLspUI8-55">
          <mxGeometry x="30" width="250" height="30" as="geometry">
            <mxRectangle width="250" height="30" as="alternateBounds" />
          </mxGeometry>
        </mxCell>
        <mxCell id="IbfQNz88X3Z1XtLspUI8-58" value="" style="shape=partialRectangle;collapsible=0;dropTarget=0;pointerEvents=0;fillColor=none;points=[[0,0.5],[1,0.5]];portConstraint=eastwest;top=0;left=0;right=0;bottom=0;" vertex="1" parent="C-vyLk0tnHw3VtMMgP7b-2">
          <mxGeometry y="390" width="280" height="30" as="geometry" />
        </mxCell>
        <mxCell id="IbfQNz88X3Z1XtLspUI8-59" value="" style="shape=partialRectangle;overflow=hidden;connectable=0;fillColor=none;top=0;left=0;bottom=0;right=0;" vertex="1" parent="IbfQNz88X3Z1XtLspUI8-58">
          <mxGeometry width="30" height="30" as="geometry">
            <mxRectangle width="30" height="30" as="alternateBounds" />
          </mxGeometry>
        </mxCell>
        <mxCell id="IbfQNz88X3Z1XtLspUI8-60" value="DateCreated  datetime  NOT NULL" style="shape=partialRectangle;overflow=hidden;connectable=0;fillColor=none;top=0;left=0;bottom=0;right=0;align=left;spacingLeft=6;" vertex="1" parent="IbfQNz88X3Z1XtLspUI8-58">
          <mxGeometry x="30" width="250" height="30" as="geometry">
            <mxRectangle width="250" height="30" as="alternateBounds" />
          </mxGeometry>
        </mxCell>
        <mxCell id="C-vyLk0tnHw3VtMMgP7b-13" value="FinancialTransaction ?" style="shape=table;startSize=30;container=1;collapsible=1;childLayout=tableLayout;fixedRows=1;rowLines=0;fontStyle=1;align=center;resizeLast=1;" parent="1" vertex="1">
          <mxGeometry x="80" y="660" width="250" height="130" as="geometry" />
        </mxCell>
        <mxCell id="C-vyLk0tnHw3VtMMgP7b-14" value="" style="shape=partialRectangle;collapsible=0;dropTarget=0;pointerEvents=0;fillColor=none;points=[[0,0.5],[1,0.5]];portConstraint=eastwest;top=0;left=0;right=0;bottom=1;" parent="C-vyLk0tnHw3VtMMgP7b-13" vertex="1">
          <mxGeometry y="30" width="250" height="30" as="geometry" />
        </mxCell>
        <mxCell id="C-vyLk0tnHw3VtMMgP7b-15" value="PK" style="shape=partialRectangle;overflow=hidden;connectable=0;fillColor=none;top=0;left=0;bottom=0;right=0;fontStyle=1;" parent="C-vyLk0tnHw3VtMMgP7b-14" vertex="1">
          <mxGeometry width="30" height="30" as="geometry">
            <mxRectangle width="30" height="30" as="alternateBounds" />
          </mxGeometry>
        </mxCell>
        <mxCell id="C-vyLk0tnHw3VtMMgP7b-16" value="Id_id int NOT NULL " style="shape=partialRectangle;overflow=hidden;connectable=0;fillColor=none;top=0;left=0;bottom=0;right=0;align=left;spacingLeft=6;fontStyle=5;" parent="C-vyLk0tnHw3VtMMgP7b-14" vertex="1">
          <mxGeometry x="30" width="220" height="30" as="geometry">
            <mxRectangle width="220" height="30" as="alternateBounds" />
          </mxGeometry>
        </mxCell>
        <mxCell id="C-vyLk0tnHw3VtMMgP7b-17" value="" style="shape=partialRectangle;collapsible=0;dropTarget=0;pointerEvents=0;fillColor=none;points=[[0,0.5],[1,0.5]];portConstraint=eastwest;top=0;left=0;right=0;bottom=0;" parent="C-vyLk0tnHw3VtMMgP7b-13" vertex="1">
          <mxGeometry y="60" width="250" height="30" as="geometry" />
        </mxCell>
        <mxCell id="C-vyLk0tnHw3VtMMgP7b-18" value="FK1" style="shape=partialRectangle;overflow=hidden;connectable=0;fillColor=none;top=0;left=0;bottom=0;right=0;" parent="C-vyLk0tnHw3VtMMgP7b-17" vertex="1">
          <mxGeometry width="30" height="30" as="geometry">
            <mxRectangle width="30" height="30" as="alternateBounds" />
          </mxGeometry>
        </mxCell>
        <mxCell id="C-vyLk0tnHw3VtMMgP7b-19" value="xx" style="shape=partialRectangle;overflow=hidden;connectable=0;fillColor=none;top=0;left=0;bottom=0;right=0;align=left;spacingLeft=6;" parent="C-vyLk0tnHw3VtMMgP7b-17" vertex="1">
          <mxGeometry x="30" width="220" height="30" as="geometry">
            <mxRectangle width="220" height="30" as="alternateBounds" />
          </mxGeometry>
        </mxCell>
        <mxCell id="C-vyLk0tnHw3VtMMgP7b-20" value="" style="shape=partialRectangle;collapsible=0;dropTarget=0;pointerEvents=0;fillColor=none;points=[[0,0.5],[1,0.5]];portConstraint=eastwest;top=0;left=0;right=0;bottom=0;" parent="C-vyLk0tnHw3VtMMgP7b-13" vertex="1">
          <mxGeometry y="90" width="250" height="30" as="geometry" />
        </mxCell>
        <mxCell id="C-vyLk0tnHw3VtMMgP7b-21" value="" style="shape=partialRectangle;overflow=hidden;connectable=0;fillColor=none;top=0;left=0;bottom=0;right=0;" parent="C-vyLk0tnHw3VtMMgP7b-20" vertex="1">
          <mxGeometry width="30" height="30" as="geometry">
            <mxRectangle width="30" height="30" as="alternateBounds" />
          </mxGeometry>
        </mxCell>
        <mxCell id="C-vyLk0tnHw3VtMMgP7b-22" value="xx" style="shape=partialRectangle;overflow=hidden;connectable=0;fillColor=none;top=0;left=0;bottom=0;right=0;align=left;spacingLeft=6;" parent="C-vyLk0tnHw3VtMMgP7b-20" vertex="1">
          <mxGeometry x="30" width="220" height="30" as="geometry">
            <mxRectangle width="220" height="30" as="alternateBounds" />
          </mxGeometry>
        </mxCell>
        <mxCell id="C-vyLk0tnHw3VtMMgP7b-23" value="Transactions" style="shape=table;startSize=30;container=1;collapsible=1;childLayout=tableLayout;fixedRows=1;rowLines=0;fontStyle=1;align=center;resizeLast=1;" parent="1" vertex="1">
          <mxGeometry x="80" y="120" width="290" height="400" as="geometry" />
        </mxCell>
        <mxCell id="C-vyLk0tnHw3VtMMgP7b-24" value="" style="shape=partialRectangle;collapsible=0;dropTarget=0;pointerEvents=0;fillColor=none;points=[[0,0.5],[1,0.5]];portConstraint=eastwest;top=0;left=0;right=0;bottom=1;" parent="C-vyLk0tnHw3VtMMgP7b-23" vertex="1">
          <mxGeometry y="30" width="290" height="30" as="geometry" />
        </mxCell>
        <mxCell id="C-vyLk0tnHw3VtMMgP7b-25" value="PK" style="shape=partialRectangle;overflow=hidden;connectable=0;fillColor=none;top=0;left=0;bottom=0;right=0;fontStyle=1;" parent="C-vyLk0tnHw3VtMMgP7b-24" vertex="1">
          <mxGeometry width="30" height="30" as="geometry">
            <mxRectangle width="30" height="30" as="alternateBounds" />
          </mxGeometry>
        </mxCell>
        <mxCell id="C-vyLk0tnHw3VtMMgP7b-26" value="Id  int  IDENTITY NOT NULL " style="shape=partialRectangle;overflow=hidden;connectable=0;fillColor=none;top=0;left=0;bottom=0;right=0;align=left;spacingLeft=6;fontStyle=5;" parent="C-vyLk0tnHw3VtMMgP7b-24" vertex="1">
          <mxGeometry x="30" width="260" height="30" as="geometry">
            <mxRectangle width="260" height="30" as="alternateBounds" />
          </mxGeometry>
        </mxCell>
        <mxCell id="C-vyLk0tnHw3VtMMgP7b-27" value="" style="shape=partialRectangle;collapsible=0;dropTarget=0;pointerEvents=0;fillColor=none;points=[[0,0.5],[1,0.5]];portConstraint=eastwest;top=0;left=0;right=0;bottom=0;" parent="C-vyLk0tnHw3VtMMgP7b-23" vertex="1">
          <mxGeometry y="60" width="290" height="30" as="geometry" />
        </mxCell>
        <mxCell id="C-vyLk0tnHw3VtMMgP7b-28" value="FK1" style="shape=partialRectangle;overflow=hidden;connectable=0;fillColor=none;top=0;left=0;bottom=0;right=0;" parent="C-vyLk0tnHw3VtMMgP7b-27" vertex="1">
          <mxGeometry width="30" height="30" as="geometry">
            <mxRectangle width="30" height="30" as="alternateBounds" />
          </mxGeometry>
        </mxCell>
        <mxCell id="C-vyLk0tnHw3VtMMgP7b-29" value="FinancialTransactionId  int  NOT NULL" style="shape=partialRectangle;overflow=hidden;connectable=0;fillColor=none;top=0;left=0;bottom=0;right=0;align=left;spacingLeft=6;" parent="C-vyLk0tnHw3VtMMgP7b-27" vertex="1">
          <mxGeometry x="30" width="260" height="30" as="geometry">
            <mxRectangle width="260" height="30" as="alternateBounds" />
          </mxGeometry>
        </mxCell>
        <mxCell id="IbfQNz88X3Z1XtLspUI8-1" value="" style="shape=partialRectangle;collapsible=0;dropTarget=0;pointerEvents=0;fillColor=none;points=[[0,0.5],[1,0.5]];portConstraint=eastwest;top=0;left=0;right=0;bottom=0;" vertex="1" parent="C-vyLk0tnHw3VtMMgP7b-23">
          <mxGeometry y="90" width="290" height="30" as="geometry" />
        </mxCell>
        <mxCell id="IbfQNz88X3Z1XtLspUI8-2" value="FK2" style="shape=partialRectangle;overflow=hidden;connectable=0;fillColor=none;top=0;left=0;bottom=0;right=0;" vertex="1" parent="IbfQNz88X3Z1XtLspUI8-1">
          <mxGeometry width="30" height="30" as="geometry">
            <mxRectangle width="30" height="30" as="alternateBounds" />
          </mxGeometry>
        </mxCell>
        <mxCell id="IbfQNz88X3Z1XtLspUI8-3" value="InvestmentId  int  NOT NULL" style="shape=partialRectangle;overflow=hidden;connectable=0;fillColor=none;top=0;left=0;bottom=0;right=0;align=left;spacingLeft=6;" vertex="1" parent="IbfQNz88X3Z1XtLspUI8-1">
          <mxGeometry x="30" width="260" height="30" as="geometry">
            <mxRectangle width="260" height="30" as="alternateBounds" />
          </mxGeometry>
        </mxCell>
        <mxCell id="IbfQNz88X3Z1XtLspUI8-4" value="" style="shape=partialRectangle;collapsible=0;dropTarget=0;pointerEvents=0;fillColor=none;points=[[0,0.5],[1,0.5]];portConstraint=eastwest;top=0;left=0;right=0;bottom=0;" vertex="1" parent="C-vyLk0tnHw3VtMMgP7b-23">
          <mxGeometry y="120" width="290" height="30" as="geometry" />
        </mxCell>
        <mxCell id="IbfQNz88X3Z1XtLspUI8-5" value="     " style="shape=partialRectangle;overflow=hidden;connectable=0;fillColor=none;top=0;left=0;bottom=0;right=0;" vertex="1" parent="IbfQNz88X3Z1XtLspUI8-4">
          <mxGeometry width="30" height="30" as="geometry">
            <mxRectangle width="30" height="30" as="alternateBounds" />
          </mxGeometry>
        </mxCell>
        <mxCell id="IbfQNz88X3Z1XtLspUI8-6" value="Date  date  NULL" style="shape=partialRectangle;overflow=hidden;connectable=0;fillColor=none;top=0;left=0;bottom=0;right=0;align=left;spacingLeft=6;" vertex="1" parent="IbfQNz88X3Z1XtLspUI8-4">
          <mxGeometry x="30" width="260" height="30" as="geometry">
            <mxRectangle width="260" height="30" as="alternateBounds" />
          </mxGeometry>
        </mxCell>
        <mxCell id="IbfQNz88X3Z1XtLspUI8-7" value="" style="shape=partialRectangle;collapsible=0;dropTarget=0;pointerEvents=0;fillColor=none;points=[[0,0.5],[1,0.5]];portConstraint=eastwest;top=0;left=0;right=0;bottom=0;" vertex="1" parent="C-vyLk0tnHw3VtMMgP7b-23">
          <mxGeometry y="150" width="290" height="30" as="geometry" />
        </mxCell>
        <mxCell id="IbfQNz88X3Z1XtLspUI8-8" value="     " style="shape=partialRectangle;overflow=hidden;connectable=0;fillColor=none;top=0;left=0;bottom=0;right=0;" vertex="1" parent="IbfQNz88X3Z1XtLspUI8-7">
          <mxGeometry width="30" height="30" as="geometry">
            <mxRectangle width="30" height="30" as="alternateBounds" />
          </mxGeometry>
        </mxCell>
        <mxCell id="IbfQNz88X3Z1XtLspUI8-9" value="ChangeInHolding  decimal(19, 16) NULL" style="shape=partialRectangle;overflow=hidden;connectable=0;fillColor=none;top=0;left=0;bottom=0;right=0;align=left;spacingLeft=6;" vertex="1" parent="IbfQNz88X3Z1XtLspUI8-7">
          <mxGeometry x="30" width="260" height="30" as="geometry">
            <mxRectangle width="260" height="30" as="alternateBounds" />
          </mxGeometry>
        </mxCell>
        <mxCell id="IbfQNz88X3Z1XtLspUI8-10" value="" style="shape=partialRectangle;collapsible=0;dropTarget=0;pointerEvents=0;fillColor=none;points=[[0,0.5],[1,0.5]];portConstraint=eastwest;top=0;left=0;right=0;bottom=0;" vertex="1" parent="C-vyLk0tnHw3VtMMgP7b-23">
          <mxGeometry y="180" width="290" height="30" as="geometry" />
        </mxCell>
        <mxCell id="IbfQNz88X3Z1XtLspUI8-11" value="    " style="shape=partialRectangle;overflow=hidden;connectable=0;fillColor=none;top=0;left=0;bottom=0;right=0;" vertex="1" parent="IbfQNz88X3Z1XtLspUI8-10">
          <mxGeometry width="30" height="30" as="geometry">
            <mxRectangle width="30" height="30" as="alternateBounds" />
          </mxGeometry>
        </mxCell>
        <mxCell id="IbfQNz88X3Z1XtLspUI8-12" value="Value decimal(19, 16) NULL" style="shape=partialRectangle;overflow=hidden;connectable=0;fillColor=none;top=0;left=0;bottom=0;right=0;align=left;spacingLeft=6;" vertex="1" parent="IbfQNz88X3Z1XtLspUI8-10">
          <mxGeometry x="30" width="260" height="30" as="geometry">
            <mxRectangle width="260" height="30" as="alternateBounds" />
          </mxGeometry>
        </mxCell>
        <mxCell id="IbfQNz88X3Z1XtLspUI8-13" value="" style="shape=partialRectangle;collapsible=0;dropTarget=0;pointerEvents=0;fillColor=none;points=[[0,0.5],[1,0.5]];portConstraint=eastwest;top=0;left=0;right=0;bottom=0;" vertex="1" parent="C-vyLk0tnHw3VtMMgP7b-23">
          <mxGeometry y="210" width="290" height="30" as="geometry" />
        </mxCell>
        <mxCell id="IbfQNz88X3Z1XtLspUI8-14" value="    " style="shape=partialRectangle;overflow=hidden;connectable=0;fillColor=none;top=0;left=0;bottom=0;right=0;" vertex="1" parent="IbfQNz88X3Z1XtLspUI8-13">
          <mxGeometry width="30" height="30" as="geometry">
            <mxRectangle width="30" height="30" as="alternateBounds" />
          </mxGeometry>
        </mxCell>
        <mxCell id="IbfQNz88X3Z1XtLspUI8-15" value="Price  decimal(19, 16) NULL" style="shape=partialRectangle;overflow=hidden;connectable=0;fillColor=none;top=0;left=0;bottom=0;right=0;align=left;spacingLeft=6;" vertex="1" parent="IbfQNz88X3Z1XtLspUI8-13">
          <mxGeometry x="30" width="260" height="30" as="geometry">
            <mxRectangle width="260" height="30" as="alternateBounds" />
          </mxGeometry>
        </mxCell>
        <mxCell id="IbfQNz88X3Z1XtLspUI8-16" value="" style="shape=partialRectangle;collapsible=0;dropTarget=0;pointerEvents=0;fillColor=none;points=[[0,0.5],[1,0.5]];portConstraint=eastwest;top=0;left=0;right=0;bottom=0;" vertex="1" parent="C-vyLk0tnHw3VtMMgP7b-23">
          <mxGeometry y="240" width="290" height="30" as="geometry" />
        </mxCell>
        <mxCell id="IbfQNz88X3Z1XtLspUI8-17" value="    " style="shape=partialRectangle;overflow=hidden;connectable=0;fillColor=none;top=0;left=0;bottom=0;right=0;" vertex="1" parent="IbfQNz88X3Z1XtLspUI8-16">
          <mxGeometry width="30" height="30" as="geometry">
            <mxRectangle width="30" height="30" as="alternateBounds" />
          </mxGeometry>
        </mxCell>
        <mxCell id="IbfQNz88X3Z1XtLspUI8-18" value="Status  int  NOT NULL" style="shape=partialRectangle;overflow=hidden;connectable=0;fillColor=none;top=0;left=0;bottom=0;right=0;align=left;spacingLeft=6;" vertex="1" parent="IbfQNz88X3Z1XtLspUI8-16">
          <mxGeometry x="30" width="260" height="30" as="geometry">
            <mxRectangle width="260" height="30" as="alternateBounds" />
          </mxGeometry>
        </mxCell>
        <mxCell id="IbfQNz88X3Z1XtLspUI8-19" value="" style="shape=partialRectangle;collapsible=0;dropTarget=0;pointerEvents=0;fillColor=none;points=[[0,0.5],[1,0.5]];portConstraint=eastwest;top=0;left=0;right=0;bottom=0;" vertex="1" parent="C-vyLk0tnHw3VtMMgP7b-23">
          <mxGeometry y="270" width="290" height="30" as="geometry" />
        </mxCell>
        <mxCell id="IbfQNz88X3Z1XtLspUI8-20" value="FK3" style="shape=partialRectangle;overflow=hidden;connectable=0;fillColor=none;top=0;left=0;bottom=0;right=0;" vertex="1" parent="IbfQNz88X3Z1XtLspUI8-19">
          <mxGeometry width="30" height="30" as="geometry">
            <mxRectangle width="30" height="30" as="alternateBounds" />
          </mxGeometry>
        </mxCell>
        <mxCell id="IbfQNz88X3Z1XtLspUI8-21" value="ReconciledInfoId  int  NULL" style="shape=partialRectangle;overflow=hidden;connectable=0;fillColor=none;top=0;left=0;bottom=0;right=0;align=left;spacingLeft=6;" vertex="1" parent="IbfQNz88X3Z1XtLspUI8-19">
          <mxGeometry x="30" width="260" height="30" as="geometry">
            <mxRectangle width="260" height="30" as="alternateBounds" />
          </mxGeometry>
        </mxCell>
        <mxCell id="IbfQNz88X3Z1XtLspUI8-22" value="" style="shape=partialRectangle;collapsible=0;dropTarget=0;pointerEvents=0;fillColor=none;points=[[0,0.5],[1,0.5]];portConstraint=eastwest;top=0;left=0;right=0;bottom=0;" vertex="1" parent="C-vyLk0tnHw3VtMMgP7b-23">
          <mxGeometry y="300" width="290" height="30" as="geometry" />
        </mxCell>
        <mxCell id="IbfQNz88X3Z1XtLspUI8-23" value="    " style="shape=partialRectangle;overflow=hidden;connectable=0;fillColor=none;top=0;left=0;bottom=0;right=0;" vertex="1" parent="IbfQNz88X3Z1XtLspUI8-22">
          <mxGeometry width="30" height="30" as="geometry">
            <mxRectangle width="30" height="30" as="alternateBounds" />
          </mxGeometry>
        </mxCell>
        <mxCell id="IbfQNz88X3Z1XtLspUI8-24" value="InstructionRef  varchar(255)  NULL" style="shape=partialRectangle;overflow=hidden;connectable=0;fillColor=none;top=0;left=0;bottom=0;right=0;align=left;spacingLeft=6;" vertex="1" parent="IbfQNz88X3Z1XtLspUI8-22">
          <mxGeometry x="30" width="260" height="30" as="geometry">
            <mxRectangle width="260" height="30" as="alternateBounds" />
          </mxGeometry>
        </mxCell>
        <mxCell id="IbfQNz88X3Z1XtLspUI8-25" value="" style="shape=partialRectangle;collapsible=0;dropTarget=0;pointerEvents=0;fillColor=none;points=[[0,0.5],[1,0.5]];portConstraint=eastwest;top=0;left=0;right=0;bottom=0;" vertex="1" parent="C-vyLk0tnHw3VtMMgP7b-23">
          <mxGeometry y="330" width="290" height="30" as="geometry" />
        </mxCell>
        <mxCell id="IbfQNz88X3Z1XtLspUI8-26" value="    " style="shape=partialRectangle;overflow=hidden;connectable=0;fillColor=none;top=0;left=0;bottom=0;right=0;" vertex="1" parent="IbfQNz88X3Z1XtLspUI8-25">
          <mxGeometry width="30" height="30" as="geometry">
            <mxRectangle width="30" height="30" as="alternateBounds" />
          </mxGeometry>
        </mxCell>
        <mxCell id="IbfQNz88X3Z1XtLspUI8-27" value="Creator  int  NOT NULL" style="shape=partialRectangle;overflow=hidden;connectable=0;fillColor=none;top=0;left=0;bottom=0;right=0;align=left;spacingLeft=6;" vertex="1" parent="IbfQNz88X3Z1XtLspUI8-25">
          <mxGeometry x="30" width="260" height="30" as="geometry">
            <mxRectangle width="260" height="30" as="alternateBounds" />
          </mxGeometry>
        </mxCell>
        <mxCell id="IbfQNz88X3Z1XtLspUI8-28" value="" style="shape=partialRectangle;collapsible=0;dropTarget=0;pointerEvents=0;fillColor=none;points=[[0,0.5],[1,0.5]];portConstraint=eastwest;top=0;left=0;right=0;bottom=0;" vertex="1" parent="C-vyLk0tnHw3VtMMgP7b-23">
          <mxGeometry y="360" width="290" height="30" as="geometry" />
        </mxCell>
        <mxCell id="IbfQNz88X3Z1XtLspUI8-29" value="    " style="shape=partialRectangle;overflow=hidden;connectable=0;fillColor=none;top=0;left=0;bottom=0;right=0;" vertex="1" parent="IbfQNz88X3Z1XtLspUI8-28">
          <mxGeometry width="30" height="30" as="geometry">
            <mxRectangle width="30" height="30" as="alternateBounds" />
          </mxGeometry>
        </mxCell>
        <mxCell id="IbfQNz88X3Z1XtLspUI8-30" value="DateCreated  datetime  NOT NULL" style="shape=partialRectangle;overflow=hidden;connectable=0;fillColor=none;top=0;left=0;bottom=0;right=0;align=left;spacingLeft=6;" vertex="1" parent="IbfQNz88X3Z1XtLspUI8-28">
          <mxGeometry x="30" width="260" height="30" as="geometry">
            <mxRectangle width="260" height="30" as="alternateBounds" />
          </mxGeometry>
        </mxCell>
        <mxCell id="xEW0AKlwuE1llbpiVYZ6-1" value="bwobject (Investment)" style="shape=table;startSize=30;container=1;collapsible=1;childLayout=tableLayout;fixedRows=1;rowLines=0;fontStyle=1;align=center;resizeLast=1;" vertex="1" parent="1">
          <mxGeometry x="380" y="660" width="250" height="130" as="geometry" />
        </mxCell>
        <mxCell id="xEW0AKlwuE1llbpiVYZ6-2" value="" style="shape=partialRectangle;collapsible=0;dropTarget=0;pointerEvents=0;fillColor=none;points=[[0,0.5],[1,0.5]];portConstraint=eastwest;top=0;left=0;right=0;bottom=1;" vertex="1" parent="xEW0AKlwuE1llbpiVYZ6-1">
          <mxGeometry y="30" width="250" height="30" as="geometry" />
        </mxCell>
        <mxCell id="xEW0AKlwuE1llbpiVYZ6-3" value="PK" style="shape=partialRectangle;overflow=hidden;connectable=0;fillColor=none;top=0;left=0;bottom=0;right=0;fontStyle=1;" vertex="1" parent="xEW0AKlwuE1llbpiVYZ6-2">
          <mxGeometry width="30" height="30" as="geometry">
            <mxRectangle width="30" height="30" as="alternateBounds" />
          </mxGeometry>
        </mxCell>
        <mxCell id="xEW0AKlwuE1llbpiVYZ6-4" value="Id_id int NOT NULL " style="shape=partialRectangle;overflow=hidden;connectable=0;fillColor=none;top=0;left=0;bottom=0;right=0;align=left;spacingLeft=6;fontStyle=5;" vertex="1" parent="xEW0AKlwuE1llbpiVYZ6-2">
          <mxGeometry x="30" width="220" height="30" as="geometry">
            <mxRectangle width="220" height="30" as="alternateBounds" />
          </mxGeometry>
        </mxCell>
        <mxCell id="xEW0AKlwuE1llbpiVYZ6-5" value="" style="shape=partialRectangle;collapsible=0;dropTarget=0;pointerEvents=0;fillColor=none;points=[[0,0.5],[1,0.5]];portConstraint=eastwest;top=0;left=0;right=0;bottom=0;" vertex="1" parent="xEW0AKlwuE1llbpiVYZ6-1">
          <mxGeometry y="60" width="250" height="30" as="geometry" />
        </mxCell>
        <mxCell id="xEW0AKlwuE1llbpiVYZ6-6" value="FK1" style="shape=partialRectangle;overflow=hidden;connectable=0;fillColor=none;top=0;left=0;bottom=0;right=0;" vertex="1" parent="xEW0AKlwuE1llbpiVYZ6-5">
          <mxGeometry width="30" height="30" as="geometry">
            <mxRectangle width="30" height="30" as="alternateBounds" />
          </mxGeometry>
        </mxCell>
        <mxCell id="xEW0AKlwuE1llbpiVYZ6-7" value="xx" style="shape=partialRectangle;overflow=hidden;connectable=0;fillColor=none;top=0;left=0;bottom=0;right=0;align=left;spacingLeft=6;" vertex="1" parent="xEW0AKlwuE1llbpiVYZ6-5">
          <mxGeometry x="30" width="220" height="30" as="geometry">
            <mxRectangle width="220" height="30" as="alternateBounds" />
          </mxGeometry>
        </mxCell>
        <mxCell id="xEW0AKlwuE1llbpiVYZ6-8" value="" style="shape=partialRectangle;collapsible=0;dropTarget=0;pointerEvents=0;fillColor=none;points=[[0,0.5],[1,0.5]];portConstraint=eastwest;top=0;left=0;right=0;bottom=0;" vertex="1" parent="xEW0AKlwuE1llbpiVYZ6-1">
          <mxGeometry y="90" width="250" height="30" as="geometry" />
        </mxCell>
        <mxCell id="xEW0AKlwuE1llbpiVYZ6-9" value="" style="shape=partialRectangle;overflow=hidden;connectable=0;fillColor=none;top=0;left=0;bottom=0;right=0;" vertex="1" parent="xEW0AKlwuE1llbpiVYZ6-8">
          <mxGeometry width="30" height="30" as="geometry">
            <mxRectangle width="30" height="30" as="alternateBounds" />
          </mxGeometry>
        </mxCell>
        <mxCell id="xEW0AKlwuE1llbpiVYZ6-10" value="xx" style="shape=partialRectangle;overflow=hidden;connectable=0;fillColor=none;top=0;left=0;bottom=0;right=0;align=left;spacingLeft=6;" vertex="1" parent="xEW0AKlwuE1llbpiVYZ6-8">
          <mxGeometry x="30" width="220" height="30" as="geometry">
            <mxRectangle width="220" height="30" as="alternateBounds" />
          </mxGeometry>
        </mxCell>
        <mxCell id="xEW0AKlwuE1llbpiVYZ6-11" value="ReconciledInfo" style="shape=table;startSize=30;container=1;collapsible=1;childLayout=tableLayout;fixedRows=1;rowLines=0;fontStyle=1;align=center;resizeLast=1;" vertex="1" parent="1">
          <mxGeometry x="80" y="820" width="250" height="130" as="geometry" />
        </mxCell>
        <mxCell id="xEW0AKlwuE1llbpiVYZ6-12" value="" style="shape=partialRectangle;collapsible=0;dropTarget=0;pointerEvents=0;fillColor=none;points=[[0,0.5],[1,0.5]];portConstraint=eastwest;top=0;left=0;right=0;bottom=1;" vertex="1" parent="xEW0AKlwuE1llbpiVYZ6-11">
          <mxGeometry y="30" width="250" height="30" as="geometry" />
        </mxCell>
        <mxCell id="xEW0AKlwuE1llbpiVYZ6-13" value="PK" style="shape=partialRectangle;overflow=hidden;connectable=0;fillColor=none;top=0;left=0;bottom=0;right=0;fontStyle=1;" vertex="1" parent="xEW0AKlwuE1llbpiVYZ6-12">
          <mxGeometry width="30" height="30" as="geometry">
            <mxRectangle width="30" height="30" as="alternateBounds" />
          </mxGeometry>
        </mxCell>
        <mxCell id="xEW0AKlwuE1llbpiVYZ6-14" value="Id_id int NOT NULL " style="shape=partialRectangle;overflow=hidden;connectable=0;fillColor=none;top=0;left=0;bottom=0;right=0;align=left;spacingLeft=6;fontStyle=5;" vertex="1" parent="xEW0AKlwuE1llbpiVYZ6-12">
          <mxGeometry x="30" width="220" height="30" as="geometry">
            <mxRectangle width="220" height="30" as="alternateBounds" />
          </mxGeometry>
        </mxCell>
        <mxCell id="xEW0AKlwuE1llbpiVYZ6-15" value="" style="shape=partialRectangle;collapsible=0;dropTarget=0;pointerEvents=0;fillColor=none;points=[[0,0.5],[1,0.5]];portConstraint=eastwest;top=0;left=0;right=0;bottom=0;" vertex="1" parent="xEW0AKlwuE1llbpiVYZ6-11">
          <mxGeometry y="60" width="250" height="30" as="geometry" />
        </mxCell>
        <mxCell id="xEW0AKlwuE1llbpiVYZ6-16" value="FK1" style="shape=partialRectangle;overflow=hidden;connectable=0;fillColor=none;top=0;left=0;bottom=0;right=0;" vertex="1" parent="xEW0AKlwuE1llbpiVYZ6-15">
          <mxGeometry width="30" height="30" as="geometry">
            <mxRectangle width="30" height="30" as="alternateBounds" />
          </mxGeometry>
        </mxCell>
        <mxCell id="xEW0AKlwuE1llbpiVYZ6-17" value="xx" style="shape=partialRectangle;overflow=hidden;connectable=0;fillColor=none;top=0;left=0;bottom=0;right=0;align=left;spacingLeft=6;" vertex="1" parent="xEW0AKlwuE1llbpiVYZ6-15">
          <mxGeometry x="30" width="220" height="30" as="geometry">
            <mxRectangle width="220" height="30" as="alternateBounds" />
          </mxGeometry>
        </mxCell>
        <mxCell id="xEW0AKlwuE1llbpiVYZ6-18" value="" style="shape=partialRectangle;collapsible=0;dropTarget=0;pointerEvents=0;fillColor=none;points=[[0,0.5],[1,0.5]];portConstraint=eastwest;top=0;left=0;right=0;bottom=0;" vertex="1" parent="xEW0AKlwuE1llbpiVYZ6-11">
          <mxGeometry y="90" width="250" height="30" as="geometry" />
        </mxCell>
        <mxCell id="xEW0AKlwuE1llbpiVYZ6-19" value="" style="shape=partialRectangle;overflow=hidden;connectable=0;fillColor=none;top=0;left=0;bottom=0;right=0;" vertex="1" parent="xEW0AKlwuE1llbpiVYZ6-18">
          <mxGeometry width="30" height="30" as="geometry">
            <mxRectangle width="30" height="30" as="alternateBounds" />
          </mxGeometry>
        </mxCell>
        <mxCell id="xEW0AKlwuE1llbpiVYZ6-20" value="xx" style="shape=partialRectangle;overflow=hidden;connectable=0;fillColor=none;top=0;left=0;bottom=0;right=0;align=left;spacingLeft=6;" vertex="1" parent="xEW0AKlwuE1llbpiVYZ6-18">
          <mxGeometry x="30" width="220" height="30" as="geometry">
            <mxRectangle width="220" height="30" as="alternateBounds" />
          </mxGeometry>
        </mxCell>
        <mxCell id="xEW0AKlwuE1llbpiVYZ6-21" value="Owners" style="shape=table;startSize=30;container=1;collapsible=1;childLayout=tableLayout;fixedRows=1;rowLines=0;fontStyle=1;align=center;resizeLast=1;" vertex="1" parent="1">
          <mxGeometry x="380" y="820" width="250" height="130" as="geometry" />
        </mxCell>
        <mxCell id="xEW0AKlwuE1llbpiVYZ6-22" value="" style="shape=partialRectangle;collapsible=0;dropTarget=0;pointerEvents=0;fillColor=none;points=[[0,0.5],[1,0.5]];portConstraint=eastwest;top=0;left=0;right=0;bottom=1;" vertex="1" parent="xEW0AKlwuE1llbpiVYZ6-21">
          <mxGeometry y="30" width="250" height="30" as="geometry" />
        </mxCell>
        <mxCell id="xEW0AKlwuE1llbpiVYZ6-23" value="PK" style="shape=partialRectangle;overflow=hidden;connectable=0;fillColor=none;top=0;left=0;bottom=0;right=0;fontStyle=1;" vertex="1" parent="xEW0AKlwuE1llbpiVYZ6-22">
          <mxGeometry width="30" height="30" as="geometry">
            <mxRectangle width="30" height="30" as="alternateBounds" />
          </mxGeometry>
        </mxCell>
        <mxCell id="xEW0AKlwuE1llbpiVYZ6-24" value="Id_id int NOT NULL " style="shape=partialRectangle;overflow=hidden;connectable=0;fillColor=none;top=0;left=0;bottom=0;right=0;align=left;spacingLeft=6;fontStyle=5;" vertex="1" parent="xEW0AKlwuE1llbpiVYZ6-22">
          <mxGeometry x="30" width="220" height="30" as="geometry">
            <mxRectangle width="220" height="30" as="alternateBounds" />
          </mxGeometry>
        </mxCell>
        <mxCell id="xEW0AKlwuE1llbpiVYZ6-25" value="" style="shape=partialRectangle;collapsible=0;dropTarget=0;pointerEvents=0;fillColor=none;points=[[0,0.5],[1,0.5]];portConstraint=eastwest;top=0;left=0;right=0;bottom=0;" vertex="1" parent="xEW0AKlwuE1llbpiVYZ6-21">
          <mxGeometry y="60" width="250" height="30" as="geometry" />
        </mxCell>
        <mxCell id="xEW0AKlwuE1llbpiVYZ6-26" value="FK1" style="shape=partialRectangle;overflow=hidden;connectable=0;fillColor=none;top=0;left=0;bottom=0;right=0;" vertex="1" parent="xEW0AKlwuE1llbpiVYZ6-25">
          <mxGeometry width="30" height="30" as="geometry">
            <mxRectangle width="30" height="30" as="alternateBounds" />
          </mxGeometry>
        </mxCell>
        <mxCell id="xEW0AKlwuE1llbpiVYZ6-27" value="xx" style="shape=partialRectangle;overflow=hidden;connectable=0;fillColor=none;top=0;left=0;bottom=0;right=0;align=left;spacingLeft=6;" vertex="1" parent="xEW0AKlwuE1llbpiVYZ6-25">
          <mxGeometry x="30" width="220" height="30" as="geometry">
            <mxRectangle width="220" height="30" as="alternateBounds" />
          </mxGeometry>
        </mxCell>
        <mxCell id="xEW0AKlwuE1llbpiVYZ6-28" value="" style="shape=partialRectangle;collapsible=0;dropTarget=0;pointerEvents=0;fillColor=none;points=[[0,0.5],[1,0.5]];portConstraint=eastwest;top=0;left=0;right=0;bottom=0;" vertex="1" parent="xEW0AKlwuE1llbpiVYZ6-21">
          <mxGeometry y="90" width="250" height="30" as="geometry" />
        </mxCell>
        <mxCell id="xEW0AKlwuE1llbpiVYZ6-29" value="" style="shape=partialRectangle;overflow=hidden;connectable=0;fillColor=none;top=0;left=0;bottom=0;right=0;" vertex="1" parent="xEW0AKlwuE1llbpiVYZ6-28">
          <mxGeometry width="30" height="30" as="geometry">
            <mxRectangle width="30" height="30" as="alternateBounds" />
          </mxGeometry>
        </mxCell>
        <mxCell id="xEW0AKlwuE1llbpiVYZ6-30" value="xx" style="shape=partialRectangle;overflow=hidden;connectable=0;fillColor=none;top=0;left=0;bottom=0;right=0;align=left;spacingLeft=6;" vertex="1" parent="xEW0AKlwuE1llbpiVYZ6-28">
          <mxGeometry x="30" width="220" height="30" as="geometry">
            <mxRectangle width="220" height="30" as="alternateBounds" />
          </mxGeometry>
        </mxCell>
        <mxCell id="xEW0AKlwuE1llbpiVYZ6-31" value="Sections" style="shape=table;startSize=30;container=1;collapsible=1;childLayout=tableLayout;fixedRows=1;rowLines=0;fontStyle=1;align=center;resizeLast=1;" vertex="1" parent="1">
          <mxGeometry x="680" y="820" width="250" height="130" as="geometry" />
        </mxCell>
        <mxCell id="xEW0AKlwuE1llbpiVYZ6-32" value="" style="shape=partialRectangle;collapsible=0;dropTarget=0;pointerEvents=0;fillColor=none;points=[[0,0.5],[1,0.5]];portConstraint=eastwest;top=0;left=0;right=0;bottom=1;" vertex="1" parent="xEW0AKlwuE1llbpiVYZ6-31">
          <mxGeometry y="30" width="250" height="30" as="geometry" />
        </mxCell>
        <mxCell id="xEW0AKlwuE1llbpiVYZ6-33" value="PK" style="shape=partialRectangle;overflow=hidden;connectable=0;fillColor=none;top=0;left=0;bottom=0;right=0;fontStyle=1;" vertex="1" parent="xEW0AKlwuE1llbpiVYZ6-32">
          <mxGeometry width="30" height="30" as="geometry">
            <mxRectangle width="30" height="30" as="alternateBounds" />
          </mxGeometry>
        </mxCell>
        <mxCell id="xEW0AKlwuE1llbpiVYZ6-34" value="Id_id int NOT NULL " style="shape=partialRectangle;overflow=hidden;connectable=0;fillColor=none;top=0;left=0;bottom=0;right=0;align=left;spacingLeft=6;fontStyle=5;" vertex="1" parent="xEW0AKlwuE1llbpiVYZ6-32">
          <mxGeometry x="30" width="220" height="30" as="geometry">
            <mxRectangle width="220" height="30" as="alternateBounds" />
          </mxGeometry>
        </mxCell>
        <mxCell id="xEW0AKlwuE1llbpiVYZ6-35" value="" style="shape=partialRectangle;collapsible=0;dropTarget=0;pointerEvents=0;fillColor=none;points=[[0,0.5],[1,0.5]];portConstraint=eastwest;top=0;left=0;right=0;bottom=0;" vertex="1" parent="xEW0AKlwuE1llbpiVYZ6-31">
          <mxGeometry y="60" width="250" height="30" as="geometry" />
        </mxCell>
        <mxCell id="xEW0AKlwuE1llbpiVYZ6-36" value="FK1" style="shape=partialRectangle;overflow=hidden;connectable=0;fillColor=none;top=0;left=0;bottom=0;right=0;" vertex="1" parent="xEW0AKlwuE1llbpiVYZ6-35">
          <mxGeometry width="30" height="30" as="geometry">
            <mxRectangle width="30" height="30" as="alternateBounds" />
          </mxGeometry>
        </mxCell>
        <mxCell id="xEW0AKlwuE1llbpiVYZ6-37" value="xx" style="shape=partialRectangle;overflow=hidden;connectable=0;fillColor=none;top=0;left=0;bottom=0;right=0;align=left;spacingLeft=6;" vertex="1" parent="xEW0AKlwuE1llbpiVYZ6-35">
          <mxGeometry x="30" width="220" height="30" as="geometry">
            <mxRectangle width="220" height="30" as="alternateBounds" />
          </mxGeometry>
        </mxCell>
        <mxCell id="xEW0AKlwuE1llbpiVYZ6-38" value="" style="shape=partialRectangle;collapsible=0;dropTarget=0;pointerEvents=0;fillColor=none;points=[[0,0.5],[1,0.5]];portConstraint=eastwest;top=0;left=0;right=0;bottom=0;" vertex="1" parent="xEW0AKlwuE1llbpiVYZ6-31">
          <mxGeometry y="90" width="250" height="30" as="geometry" />
        </mxCell>
        <mxCell id="xEW0AKlwuE1llbpiVYZ6-39" value="" style="shape=partialRectangle;overflow=hidden;connectable=0;fillColor=none;top=0;left=0;bottom=0;right=0;" vertex="1" parent="xEW0AKlwuE1llbpiVYZ6-38">
          <mxGeometry width="30" height="30" as="geometry">
            <mxRectangle width="30" height="30" as="alternateBounds" />
          </mxGeometry>
        </mxCell>
        <mxCell id="xEW0AKlwuE1llbpiVYZ6-40" value="xx" style="shape=partialRectangle;overflow=hidden;connectable=0;fillColor=none;top=0;left=0;bottom=0;right=0;align=left;spacingLeft=6;" vertex="1" parent="xEW0AKlwuE1llbpiVYZ6-38">
          <mxGeometry x="30" width="220" height="30" as="geometry">
            <mxRectangle width="220" height="30" as="alternateBounds" />
          </mxGeometry>
        </mxCell>
      </root>
    </mxGraphModel>
  </diagram>
  <diagram id="RilsxvOrjWELzw277qes" name="Column Def">
    <mxGraphModel dx="931" dy="1184" grid="1" gridSize="10" guides="1" tooltips="1" connect="1" arrows="1" fold="1" page="1" pageScale="1" pageWidth="827" pageHeight="1169" math="0" shadow="0">
      <root>
        <mxCell id="0" />
        <mxCell id="1" parent="0" />
        <mxCell id="Bz9PuHuydpq6XIhBZxyH-1" value="" style="shape=table;startSize=0;container=1;collapsible=0;childLayout=tableLayout;align=left;verticalAlign=middle;" vertex="1" parent="1">
          <mxGeometry x="50" y="40" width="720" height="976" as="geometry" />
        </mxCell>
        <mxCell id="Bz9PuHuydpq6XIhBZxyH-2" value="" style="shape=tableRow;horizontal=0;startSize=0;swimlaneHead=0;swimlaneBody=0;top=0;left=0;bottom=0;right=0;collapsible=0;dropTarget=0;fillColor=none;points=[[0,0.5],[1,0.5]];portConstraint=eastwest;align=left;verticalAlign=middle;" vertex="1" parent="Bz9PuHuydpq6XIhBZxyH-1">
          <mxGeometry width="720" height="40" as="geometry" />
        </mxCell>
        <mxCell id="Bz9PuHuydpq6XIhBZxyH-3" value="&lt;b&gt;Investment Transaction&lt;/b&gt;" style="shape=partialRectangle;html=1;whiteSpace=wrap;connectable=0;overflow=hidden;fillColor=none;top=0;left=0;bottom=0;right=0;pointerEvents=1;align=left;verticalAlign=middle;" vertex="1" parent="Bz9PuHuydpq6XIhBZxyH-2">
          <mxGeometry width="233" height="40" as="geometry">
            <mxRectangle width="233" height="40" as="alternateBounds" />
          </mxGeometry>
        </mxCell>
        <mxCell id="Bz9PuHuydpq6XIhBZxyH-4" value="" style="shape=partialRectangle;html=1;whiteSpace=wrap;connectable=0;overflow=hidden;fillColor=none;top=0;left=0;bottom=0;right=0;pointerEvents=1;align=left;verticalAlign=middle;" vertex="1" parent="Bz9PuHuydpq6XIhBZxyH-2">
          <mxGeometry x="233" width="487" height="40" as="geometry">
            <mxRectangle width="487" height="40" as="alternateBounds" />
          </mxGeometry>
        </mxCell>
        <mxCell id="Bz9PuHuydpq6XIhBZxyH-5" value="" style="shape=tableRow;horizontal=0;startSize=0;swimlaneHead=0;swimlaneBody=0;top=0;left=0;bottom=0;right=0;collapsible=0;dropTarget=0;fillColor=none;points=[[0,0.5],[1,0.5]];portConstraint=eastwest;align=left;verticalAlign=middle;" vertex="1" parent="Bz9PuHuydpq6XIhBZxyH-1">
          <mxGeometry y="40" width="720" height="37" as="geometry" />
        </mxCell>
        <mxCell id="Bz9PuHuydpq6XIhBZxyH-6" value="Financial transaction id" style="shape=partialRectangle;html=1;whiteSpace=wrap;connectable=0;overflow=hidden;fillColor=none;top=0;left=0;bottom=0;right=0;pointerEvents=1;align=left;verticalAlign=middle;" vertex="1" parent="Bz9PuHuydpq6XIhBZxyH-5">
          <mxGeometry width="233" height="37" as="geometry">
            <mxRectangle width="233" height="37" as="alternateBounds" />
          </mxGeometry>
        </mxCell>
        <mxCell id="Bz9PuHuydpq6XIhBZxyH-7" value="The financial transaction that the transaction relates to" style="shape=partialRectangle;html=1;whiteSpace=wrap;connectable=0;overflow=hidden;fillColor=none;top=0;left=0;bottom=0;right=0;pointerEvents=1;align=left;verticalAlign=middle;" vertex="1" parent="Bz9PuHuydpq6XIhBZxyH-5">
          <mxGeometry x="233" width="487" height="37" as="geometry">
            <mxRectangle width="487" height="37" as="alternateBounds" />
          </mxGeometry>
        </mxCell>
        <mxCell id="Bz9PuHuydpq6XIhBZxyH-8" value="" style="shape=tableRow;horizontal=0;startSize=0;swimlaneHead=0;swimlaneBody=0;top=0;left=0;bottom=0;right=0;collapsible=0;dropTarget=0;fillColor=none;points=[[0,0.5],[1,0.5]];portConstraint=eastwest;align=left;verticalAlign=middle;" vertex="1" parent="Bz9PuHuydpq6XIhBZxyH-1">
          <mxGeometry y="77" width="720" height="39" as="geometry" />
        </mxCell>
        <mxCell id="Bz9PuHuydpq6XIhBZxyH-9" value="Investment id" style="shape=partialRectangle;html=1;whiteSpace=wrap;connectable=0;overflow=hidden;fillColor=none;top=0;left=0;bottom=0;right=0;pointerEvents=1;align=left;verticalAlign=middle;" vertex="1" parent="Bz9PuHuydpq6XIhBZxyH-8">
          <mxGeometry width="233" height="39" as="geometry">
            <mxRectangle width="233" height="39" as="alternateBounds" />
          </mxGeometry>
        </mxCell>
        <mxCell id="Bz9PuHuydpq6XIhBZxyH-10" value="The investment that the transaction relates to (source or target?)" style="shape=partialRectangle;html=1;whiteSpace=wrap;connectable=0;overflow=hidden;fillColor=none;top=0;left=0;bottom=0;right=0;pointerEvents=1;align=left;verticalAlign=middle;" vertex="1" parent="Bz9PuHuydpq6XIhBZxyH-8">
          <mxGeometry x="233" width="487" height="39" as="geometry">
            <mxRectangle width="487" height="39" as="alternateBounds" />
          </mxGeometry>
        </mxCell>
        <mxCell id="Bz9PuHuydpq6XIhBZxyH-11" value="" style="shape=tableRow;horizontal=0;startSize=0;swimlaneHead=0;swimlaneBody=0;top=0;left=0;bottom=0;right=0;collapsible=0;dropTarget=0;fillColor=none;points=[[0,0.5],[1,0.5]];portConstraint=eastwest;align=left;verticalAlign=middle;" vertex="1" parent="Bz9PuHuydpq6XIhBZxyH-1">
          <mxGeometry y="116" width="720" height="38" as="geometry" />
        </mxCell>
        <mxCell id="Bz9PuHuydpq6XIhBZxyH-12" value="Date" style="shape=partialRectangle;html=1;whiteSpace=wrap;connectable=0;overflow=hidden;fillColor=none;top=0;left=0;bottom=0;right=0;pointerEvents=1;align=left;verticalAlign=middle;" vertex="1" parent="Bz9PuHuydpq6XIhBZxyH-11">
          <mxGeometry width="233" height="38" as="geometry">
            <mxRectangle width="233" height="38" as="alternateBounds" />
          </mxGeometry>
        </mxCell>
        <mxCell id="Bz9PuHuydpq6XIhBZxyH-13" value="The effective date of the investment transaction" style="shape=partialRectangle;html=1;whiteSpace=wrap;connectable=0;overflow=hidden;fillColor=none;top=0;left=0;bottom=0;right=0;pointerEvents=1;align=left;verticalAlign=middle;" vertex="1" parent="Bz9PuHuydpq6XIhBZxyH-11">
          <mxGeometry x="233" width="487" height="38" as="geometry">
            <mxRectangle width="487" height="38" as="alternateBounds" />
          </mxGeometry>
        </mxCell>
        <mxCell id="Bz9PuHuydpq6XIhBZxyH-14" value="" style="shape=tableRow;horizontal=0;startSize=0;swimlaneHead=0;swimlaneBody=0;top=0;left=0;bottom=0;right=0;collapsible=0;dropTarget=0;fillColor=none;points=[[0,0.5],[1,0.5]];portConstraint=eastwest;align=left;verticalAlign=middle;" vertex="1" parent="Bz9PuHuydpq6XIhBZxyH-1">
          <mxGeometry y="154" width="720" height="39" as="geometry" />
        </mxCell>
        <mxCell id="Bz9PuHuydpq6XIhBZxyH-15" value="Change in holding" style="shape=partialRectangle;html=1;whiteSpace=wrap;connectable=0;overflow=hidden;fillColor=none;top=0;left=0;bottom=0;right=0;pointerEvents=1;align=left;verticalAlign=middle;" vertex="1" parent="Bz9PuHuydpq6XIhBZxyH-14">
          <mxGeometry width="233" height="39" as="geometry">
            <mxRectangle width="233" height="39" as="alternateBounds" />
          </mxGeometry>
        </mxCell>
        <mxCell id="Bz9PuHuydpq6XIhBZxyH-16" value="The unit delta" style="shape=partialRectangle;html=1;whiteSpace=wrap;connectable=0;overflow=hidden;fillColor=none;top=0;left=0;bottom=0;right=0;pointerEvents=1;align=left;verticalAlign=middle;" vertex="1" parent="Bz9PuHuydpq6XIhBZxyH-14">
          <mxGeometry x="233" width="487" height="39" as="geometry">
            <mxRectangle width="487" height="39" as="alternateBounds" />
          </mxGeometry>
        </mxCell>
        <mxCell id="Bz9PuHuydpq6XIhBZxyH-17" value="" style="shape=tableRow;horizontal=0;startSize=0;swimlaneHead=0;swimlaneBody=0;top=0;left=0;bottom=0;right=0;collapsible=0;dropTarget=0;fillColor=none;points=[[0,0.5],[1,0.5]];portConstraint=eastwest;align=left;verticalAlign=middle;" vertex="1" parent="Bz9PuHuydpq6XIhBZxyH-1">
          <mxGeometry y="193" width="720" height="38" as="geometry" />
        </mxCell>
        <mxCell id="Bz9PuHuydpq6XIhBZxyH-18" value="Value" style="shape=partialRectangle;html=1;whiteSpace=wrap;connectable=0;overflow=hidden;fillColor=none;top=0;left=0;bottom=0;right=0;pointerEvents=1;align=left;verticalAlign=middle;" vertex="1" parent="Bz9PuHuydpq6XIhBZxyH-17">
          <mxGeometry width="233" height="38" as="geometry">
            <mxRectangle width="233" height="38" as="alternateBounds" />
          </mxGeometry>
        </mxCell>
        <mxCell id="Bz9PuHuydpq6XIhBZxyH-19" value="The cash value of the change" style="shape=partialRectangle;html=1;whiteSpace=wrap;connectable=0;overflow=hidden;fillColor=none;top=0;left=0;bottom=0;right=0;pointerEvents=1;align=left;verticalAlign=middle;" vertex="1" parent="Bz9PuHuydpq6XIhBZxyH-17">
          <mxGeometry x="233" width="487" height="38" as="geometry">
            <mxRectangle width="487" height="38" as="alternateBounds" />
          </mxGeometry>
        </mxCell>
        <mxCell id="Bz9PuHuydpq6XIhBZxyH-20" value="" style="shape=tableRow;horizontal=0;startSize=0;swimlaneHead=0;swimlaneBody=0;top=0;left=0;bottom=0;right=0;collapsible=0;dropTarget=0;fillColor=none;points=[[0,0.5],[1,0.5]];portConstraint=eastwest;align=left;verticalAlign=middle;" vertex="1" parent="Bz9PuHuydpq6XIhBZxyH-1">
          <mxGeometry y="231" width="720" height="39" as="geometry" />
        </mxCell>
        <mxCell id="Bz9PuHuydpq6XIhBZxyH-21" value="Price" style="shape=partialRectangle;html=1;whiteSpace=wrap;connectable=0;overflow=hidden;fillColor=none;top=0;left=0;bottom=0;right=0;pointerEvents=1;align=left;verticalAlign=middle;" vertex="1" parent="Bz9PuHuydpq6XIhBZxyH-20">
          <mxGeometry width="233" height="39" as="geometry">
            <mxRectangle width="233" height="39" as="alternateBounds" />
          </mxGeometry>
        </mxCell>
        <mxCell id="Bz9PuHuydpq6XIhBZxyH-22" value="The effective price (for unpriced investment should equal 1)" style="shape=partialRectangle;html=1;whiteSpace=wrap;connectable=0;overflow=hidden;fillColor=none;top=0;left=0;bottom=0;right=0;pointerEvents=1;align=left;verticalAlign=middle;" vertex="1" parent="Bz9PuHuydpq6XIhBZxyH-20">
          <mxGeometry x="233" width="487" height="39" as="geometry">
            <mxRectangle width="487" height="39" as="alternateBounds" />
          </mxGeometry>
        </mxCell>
        <mxCell id="Bz9PuHuydpq6XIhBZxyH-23" value="" style="shape=tableRow;horizontal=0;startSize=0;swimlaneHead=0;swimlaneBody=0;top=0;left=0;bottom=0;right=0;collapsible=0;dropTarget=0;fillColor=none;points=[[0,0.5],[1,0.5]];portConstraint=eastwest;align=left;verticalAlign=middle;" vertex="1" parent="Bz9PuHuydpq6XIhBZxyH-1">
          <mxGeometry y="270" width="720" height="60" as="geometry" />
        </mxCell>
        <mxCell id="Bz9PuHuydpq6XIhBZxyH-24" value="Staus" style="shape=partialRectangle;html=1;whiteSpace=wrap;connectable=0;overflow=hidden;fillColor=none;top=0;left=0;bottom=0;right=0;pointerEvents=1;align=left;verticalAlign=middle;" vertex="1" parent="Bz9PuHuydpq6XIhBZxyH-23">
          <mxGeometry width="233" height="60" as="geometry">
            <mxRectangle width="233" height="60" as="alternateBounds" />
          </mxGeometry>
        </mxCell>
        <mxCell id="Bz9PuHuydpq6XIhBZxyH-25" value="Default to &#39;Current&#39;.&amp;nbsp; { Current, Reconciled, ReconciledSuspended, Delete, PendingAllocation, PendingSubmission, PendingConfirmation, Pending, Ignored }" style="shape=partialRectangle;html=1;whiteSpace=wrap;connectable=0;overflow=hidden;fillColor=none;top=0;left=0;bottom=0;right=0;pointerEvents=1;align=left;verticalAlign=middle;" vertex="1" parent="Bz9PuHuydpq6XIhBZxyH-23">
          <mxGeometry x="233" width="487" height="60" as="geometry">
            <mxRectangle width="487" height="60" as="alternateBounds" />
          </mxGeometry>
        </mxCell>
        <mxCell id="Bz9PuHuydpq6XIhBZxyH-26" value="" style="shape=tableRow;horizontal=0;startSize=0;swimlaneHead=0;swimlaneBody=0;top=0;left=0;bottom=0;right=0;collapsible=0;dropTarget=0;fillColor=none;points=[[0,0.5],[1,0.5]];portConstraint=eastwest;align=left;verticalAlign=middle;" vertex="1" parent="Bz9PuHuydpq6XIhBZxyH-1">
          <mxGeometry y="330" width="720" height="40" as="geometry" />
        </mxCell>
        <mxCell id="Bz9PuHuydpq6XIhBZxyH-27" value="Reconciled info id" style="shape=partialRectangle;html=1;whiteSpace=wrap;connectable=0;overflow=hidden;fillColor=none;top=0;left=0;bottom=0;right=0;pointerEvents=1;align=left;verticalAlign=middle;" vertex="1" parent="Bz9PuHuydpq6XIhBZxyH-26">
          <mxGeometry width="233" height="40" as="geometry">
            <mxRectangle width="233" height="40" as="alternateBounds" />
          </mxGeometry>
        </mxCell>
        <mxCell id="Bz9PuHuydpq6XIhBZxyH-28" value="Expected to be set if status is &#39;Reconciled&#39;, otherwise null" style="shape=partialRectangle;html=1;whiteSpace=wrap;connectable=0;overflow=hidden;fillColor=none;top=0;left=0;bottom=0;right=0;pointerEvents=1;align=left;verticalAlign=middle;" vertex="1" parent="Bz9PuHuydpq6XIhBZxyH-26">
          <mxGeometry x="233" width="487" height="40" as="geometry">
            <mxRectangle width="487" height="40" as="alternateBounds" />
          </mxGeometry>
        </mxCell>
        <mxCell id="Bz9PuHuydpq6XIhBZxyH-29" value="" style="shape=tableRow;horizontal=0;startSize=0;swimlaneHead=0;swimlaneBody=0;top=0;left=0;bottom=0;right=0;collapsible=0;dropTarget=0;fillColor=none;points=[[0,0.5],[1,0.5]];portConstraint=eastwest;align=left;verticalAlign=middle;" vertex="1" parent="Bz9PuHuydpq6XIhBZxyH-1">
          <mxGeometry y="370" width="720" height="38" as="geometry" />
        </mxCell>
        <mxCell id="Bz9PuHuydpq6XIhBZxyH-30" value="Instruction ref" style="shape=partialRectangle;html=1;whiteSpace=wrap;connectable=0;overflow=hidden;fillColor=none;top=0;left=0;bottom=0;right=0;pointerEvents=1;align=left;verticalAlign=middle;" vertex="1" parent="Bz9PuHuydpq6XIhBZxyH-29">
          <mxGeometry width="233" height="38" as="geometry">
            <mxRectangle width="233" height="38" as="alternateBounds" />
          </mxGeometry>
        </mxCell>
        <mxCell id="Bz9PuHuydpq6XIhBZxyH-31" value="A reference for the accompanying investment instruction if any" style="shape=partialRectangle;html=1;whiteSpace=wrap;connectable=0;overflow=hidden;fillColor=none;top=0;left=0;bottom=0;right=0;pointerEvents=1;align=left;verticalAlign=middle;" vertex="1" parent="Bz9PuHuydpq6XIhBZxyH-29">
          <mxGeometry x="233" width="487" height="38" as="geometry">
            <mxRectangle width="487" height="38" as="alternateBounds" />
          </mxGeometry>
        </mxCell>
        <mxCell id="Bz9PuHuydpq6XIhBZxyH-32" value="" style="shape=tableRow;horizontal=0;startSize=0;swimlaneHead=0;swimlaneBody=0;top=0;left=0;bottom=0;right=0;collapsible=0;dropTarget=0;fillColor=none;points=[[0,0.5],[1,0.5]];portConstraint=eastwest;align=left;verticalAlign=middle;" vertex="1" parent="Bz9PuHuydpq6XIhBZxyH-1">
          <mxGeometry y="408" width="720" height="38" as="geometry" />
        </mxCell>
        <mxCell id="Bz9PuHuydpq6XIhBZxyH-33" value="" style="shape=partialRectangle;html=1;whiteSpace=wrap;connectable=0;overflow=hidden;fillColor=none;top=0;left=0;bottom=0;right=0;pointerEvents=1;align=left;verticalAlign=middle;" vertex="1" parent="Bz9PuHuydpq6XIhBZxyH-32">
          <mxGeometry width="233" height="38" as="geometry">
            <mxRectangle width="233" height="38" as="alternateBounds" />
          </mxGeometry>
        </mxCell>
        <mxCell id="Bz9PuHuydpq6XIhBZxyH-34" value="" style="shape=partialRectangle;html=1;whiteSpace=wrap;connectable=0;overflow=hidden;fillColor=none;top=0;left=0;bottom=0;right=0;pointerEvents=1;align=left;verticalAlign=middle;" vertex="1" parent="Bz9PuHuydpq6XIhBZxyH-32">
          <mxGeometry x="233" width="487" height="38" as="geometry">
            <mxRectangle width="487" height="38" as="alternateBounds" />
          </mxGeometry>
        </mxCell>
        <mxCell id="Bz9PuHuydpq6XIhBZxyH-35" value="" style="shape=tableRow;horizontal=0;startSize=0;swimlaneHead=0;swimlaneBody=0;top=0;left=0;bottom=0;right=0;collapsible=0;dropTarget=0;fillColor=none;points=[[0,0.5],[1,0.5]];portConstraint=eastwest;align=left;verticalAlign=middle;" vertex="1" parent="Bz9PuHuydpq6XIhBZxyH-1">
          <mxGeometry y="446" width="720" height="39" as="geometry" />
        </mxCell>
        <mxCell id="Bz9PuHuydpq6XIhBZxyH-36" value="&lt;b&gt;Investment Breakdown&lt;/b&gt;" style="shape=partialRectangle;html=1;whiteSpace=wrap;connectable=0;overflow=hidden;fillColor=none;top=0;left=0;bottom=0;right=0;pointerEvents=1;align=left;verticalAlign=middle;" vertex="1" parent="Bz9PuHuydpq6XIhBZxyH-35">
          <mxGeometry width="233" height="39" as="geometry">
            <mxRectangle width="233" height="39" as="alternateBounds" />
          </mxGeometry>
        </mxCell>
        <mxCell id="Bz9PuHuydpq6XIhBZxyH-37" value="" style="shape=partialRectangle;html=1;whiteSpace=wrap;connectable=0;overflow=hidden;fillColor=none;top=0;left=0;bottom=0;right=0;pointerEvents=1;align=left;verticalAlign=middle;" vertex="1" parent="Bz9PuHuydpq6XIhBZxyH-35">
          <mxGeometry x="233" width="487" height="39" as="geometry">
            <mxRectangle width="487" height="39" as="alternateBounds" />
          </mxGeometry>
        </mxCell>
        <mxCell id="Bz9PuHuydpq6XIhBZxyH-38" value="" style="shape=tableRow;horizontal=0;startSize=0;swimlaneHead=0;swimlaneBody=0;top=0;left=0;bottom=0;right=0;collapsible=0;dropTarget=0;fillColor=none;points=[[0,0.5],[1,0.5]];portConstraint=eastwest;align=left;verticalAlign=middle;" vertex="1" parent="Bz9PuHuydpq6XIhBZxyH-1">
          <mxGeometry y="485" width="720" height="39" as="geometry" />
        </mxCell>
        <mxCell id="Bz9PuHuydpq6XIhBZxyH-39" value="Transaction id" style="shape=partialRectangle;html=1;whiteSpace=wrap;connectable=0;overflow=hidden;fillColor=none;top=0;left=0;bottom=0;right=0;pointerEvents=1;align=left;verticalAlign=middle;" vertex="1" parent="Bz9PuHuydpq6XIhBZxyH-38">
          <mxGeometry width="233" height="39" as="geometry">
            <mxRectangle width="233" height="39" as="alternateBounds" />
          </mxGeometry>
        </mxCell>
        <mxCell id="Bz9PuHuydpq6XIhBZxyH-40" value="The investment transaction that the breakdown relates to" style="shape=partialRectangle;html=1;whiteSpace=wrap;connectable=0;overflow=hidden;fillColor=none;top=0;left=0;bottom=0;right=0;pointerEvents=1;align=left;verticalAlign=middle;" vertex="1" parent="Bz9PuHuydpq6XIhBZxyH-38">
          <mxGeometry x="233" width="487" height="39" as="geometry">
            <mxRectangle width="487" height="39" as="alternateBounds" />
          </mxGeometry>
        </mxCell>
        <mxCell id="Bz9PuHuydpq6XIhBZxyH-41" value="" style="shape=tableRow;horizontal=0;startSize=0;swimlaneHead=0;swimlaneBody=0;top=0;left=0;bottom=0;right=0;collapsible=0;dropTarget=0;fillColor=none;points=[[0,0.5],[1,0.5]];portConstraint=eastwest;align=left;verticalAlign=middle;" vertex="1" parent="Bz9PuHuydpq6XIhBZxyH-1">
          <mxGeometry y="524" width="720" height="39" as="geometry" />
        </mxCell>
        <mxCell id="Bz9PuHuydpq6XIhBZxyH-42" value="Financial transaction id" style="shape=partialRectangle;html=1;whiteSpace=wrap;connectable=0;overflow=hidden;fillColor=none;top=0;left=0;bottom=0;right=0;pointerEvents=1;align=left;verticalAlign=middle;" vertex="1" parent="Bz9PuHuydpq6XIhBZxyH-41">
          <mxGeometry width="233" height="39" as="geometry">
            <mxRectangle width="233" height="39" as="alternateBounds" />
          </mxGeometry>
        </mxCell>
        <mxCell id="Bz9PuHuydpq6XIhBZxyH-43" value="If set, refers to monies held as contributions not invested (nullable?)" style="shape=partialRectangle;html=1;whiteSpace=wrap;connectable=0;overflow=hidden;fillColor=none;top=0;left=0;bottom=0;right=0;pointerEvents=1;align=left;verticalAlign=middle;" vertex="1" parent="Bz9PuHuydpq6XIhBZxyH-41">
          <mxGeometry x="233" width="487" height="39" as="geometry">
            <mxRectangle width="487" height="39" as="alternateBounds" />
          </mxGeometry>
        </mxCell>
        <mxCell id="Bz9PuHuydpq6XIhBZxyH-44" value="" style="shape=tableRow;horizontal=0;startSize=0;swimlaneHead=0;swimlaneBody=0;top=0;left=0;bottom=0;right=0;collapsible=0;dropTarget=0;fillColor=none;points=[[0,0.5],[1,0.5]];portConstraint=eastwest;align=left;verticalAlign=middle;" vertex="1" parent="Bz9PuHuydpq6XIhBZxyH-1">
          <mxGeometry y="563" width="720" height="37" as="geometry" />
        </mxCell>
        <mxCell id="Bz9PuHuydpq6XIhBZxyH-45" value="Owner id" style="shape=partialRectangle;html=1;whiteSpace=wrap;connectable=0;overflow=hidden;fillColor=none;top=0;left=0;bottom=0;right=0;pointerEvents=1;align=left;verticalAlign=middle;" vertex="1" parent="Bz9PuHuydpq6XIhBZxyH-44">
          <mxGeometry width="233" height="37" as="geometry">
            <mxRectangle width="233" height="37" as="alternateBounds" />
          </mxGeometry>
        </mxCell>
        <mxCell id="Bz9PuHuydpq6XIhBZxyH-46" value="The entity (member or scheme) to whom this asset is designated" style="shape=partialRectangle;html=1;whiteSpace=wrap;connectable=0;overflow=hidden;fillColor=none;top=0;left=0;bottom=0;right=0;pointerEvents=1;align=left;verticalAlign=middle;" vertex="1" parent="Bz9PuHuydpq6XIhBZxyH-44">
          <mxGeometry x="233" width="487" height="37" as="geometry">
            <mxRectangle width="487" height="37" as="alternateBounds" />
          </mxGeometry>
        </mxCell>
        <mxCell id="Bz9PuHuydpq6XIhBZxyH-47" value="" style="shape=tableRow;horizontal=0;startSize=0;swimlaneHead=0;swimlaneBody=0;top=0;left=0;bottom=0;right=0;collapsible=0;dropTarget=0;fillColor=none;points=[[0,0.5],[1,0.5]];portConstraint=eastwest;align=left;verticalAlign=middle;" vertex="1" parent="Bz9PuHuydpq6XIhBZxyH-1">
          <mxGeometry y="600" width="720" height="40" as="geometry" />
        </mxCell>
        <mxCell id="Bz9PuHuydpq6XIhBZxyH-48" value="Section id" style="shape=partialRectangle;html=1;whiteSpace=wrap;connectable=0;overflow=hidden;fillColor=none;top=0;left=0;bottom=0;right=0;pointerEvents=1;align=left;verticalAlign=middle;" vertex="1" parent="Bz9PuHuydpq6XIhBZxyH-47">
          <mxGeometry width="233" height="40" as="geometry">
            <mxRectangle width="233" height="40" as="alternateBounds" />
          </mxGeometry>
        </mxCell>
        <mxCell id="Bz9PuHuydpq6XIhBZxyH-49" value="Defines metadata around assets designated to members. E.g., scheme contribution / transferred in contribution (affects annual allowance treatment)" style="shape=partialRectangle;html=1;whiteSpace=wrap;connectable=0;overflow=hidden;fillColor=none;top=0;left=0;bottom=0;right=0;pointerEvents=1;align=left;verticalAlign=middle;" vertex="1" parent="Bz9PuHuydpq6XIhBZxyH-47">
          <mxGeometry x="233" width="487" height="40" as="geometry">
            <mxRectangle width="487" height="40" as="alternateBounds" />
          </mxGeometry>
        </mxCell>
        <mxCell id="Bz9PuHuydpq6XIhBZxyH-50" value="" style="shape=tableRow;horizontal=0;startSize=0;swimlaneHead=0;swimlaneBody=0;top=0;left=0;bottom=0;right=0;collapsible=0;dropTarget=0;fillColor=none;points=[[0,0.5],[1,0.5]];portConstraint=eastwest;align=left;verticalAlign=middle;" vertex="1" parent="Bz9PuHuydpq6XIhBZxyH-1">
          <mxGeometry y="640" width="720" height="38" as="geometry" />
        </mxCell>
        <mxCell id="Bz9PuHuydpq6XIhBZxyH-51" value="Contribution type" style="shape=partialRectangle;html=1;whiteSpace=wrap;connectable=0;overflow=hidden;fillColor=none;top=0;left=0;bottom=0;right=0;pointerEvents=1;align=left;verticalAlign=middle;" vertex="1" parent="Bz9PuHuydpq6XIhBZxyH-50">
          <mxGeometry width="233" height="38" as="geometry">
            <mxRectangle width="233" height="38" as="alternateBounds" />
          </mxGeometry>
        </mxCell>
        <mxCell id="Bz9PuHuydpq6XIhBZxyH-52" value="Defines metadata around assets designated to members. E.g., employee / employer splits (affects refunds) or Protected Rights (affects retirement lump sums)" style="shape=partialRectangle;html=1;whiteSpace=wrap;connectable=0;overflow=hidden;fillColor=none;top=0;left=0;bottom=0;right=0;pointerEvents=1;align=left;verticalAlign=middle;" vertex="1" parent="Bz9PuHuydpq6XIhBZxyH-50">
          <mxGeometry x="233" width="487" height="38" as="geometry">
            <mxRectangle width="487" height="38" as="alternateBounds" />
          </mxGeometry>
        </mxCell>
        <mxCell id="Bz9PuHuydpq6XIhBZxyH-53" value="" style="shape=tableRow;horizontal=0;startSize=0;swimlaneHead=0;swimlaneBody=0;top=0;left=0;bottom=0;right=0;collapsible=0;dropTarget=0;fillColor=none;points=[[0,0.5],[1,0.5]];portConstraint=eastwest;align=left;verticalAlign=middle;" vertex="1" parent="Bz9PuHuydpq6XIhBZxyH-1">
          <mxGeometry y="678" width="720" height="62" as="geometry" />
        </mxCell>
        <mxCell id="Bz9PuHuydpq6XIhBZxyH-54" value="Change in holding" style="shape=partialRectangle;html=1;whiteSpace=wrap;connectable=0;overflow=hidden;fillColor=none;top=0;left=0;bottom=0;right=0;pointerEvents=1;align=left;verticalAlign=middle;" vertex="1" parent="Bz9PuHuydpq6XIhBZxyH-53">
          <mxGeometry width="233" height="62" as="geometry">
            <mxRectangle width="233" height="62" as="alternateBounds" />
          </mxGeometry>
        </mxCell>
        <mxCell id="Bz9PuHuydpq6XIhBZxyH-55" value="The change in holding (the unit amount) - investment debits should be recorded as a negative amount. Expected to be non-zero unless status is &#39;Pending&#39; in which case may not be calculated yet." style="shape=partialRectangle;html=1;whiteSpace=wrap;connectable=0;overflow=hidden;fillColor=none;top=0;left=0;bottom=0;right=0;pointerEvents=1;align=left;verticalAlign=middle;" vertex="1" parent="Bz9PuHuydpq6XIhBZxyH-53">
          <mxGeometry x="233" width="487" height="62" as="geometry">
            <mxRectangle width="487" height="62" as="alternateBounds" />
          </mxGeometry>
        </mxCell>
        <mxCell id="Bz9PuHuydpq6XIhBZxyH-56" value="" style="shape=tableRow;horizontal=0;startSize=0;swimlaneHead=0;swimlaneBody=0;top=0;left=0;bottom=0;right=0;collapsible=0;dropTarget=0;fillColor=none;points=[[0,0.5],[1,0.5]];portConstraint=eastwest;align=left;verticalAlign=middle;" vertex="1" parent="Bz9PuHuydpq6XIhBZxyH-1">
          <mxGeometry y="740" width="720" height="39" as="geometry" />
        </mxCell>
        <mxCell id="Bz9PuHuydpq6XIhBZxyH-57" value="Value" style="shape=partialRectangle;html=1;whiteSpace=wrap;connectable=0;overflow=hidden;fillColor=none;top=0;left=0;bottom=0;right=0;pointerEvents=1;align=left;verticalAlign=middle;" vertex="1" parent="Bz9PuHuydpq6XIhBZxyH-56">
          <mxGeometry width="233" height="39" as="geometry">
            <mxRectangle width="233" height="39" as="alternateBounds" />
          </mxGeometry>
        </mxCell>
        <mxCell id="Bz9PuHuydpq6XIhBZxyH-58" value="" style="shape=partialRectangle;html=1;whiteSpace=wrap;connectable=0;overflow=hidden;fillColor=none;top=0;left=0;bottom=0;right=0;pointerEvents=1;align=left;verticalAlign=middle;" vertex="1" parent="Bz9PuHuydpq6XIhBZxyH-56">
          <mxGeometry x="233" width="487" height="39" as="geometry">
            <mxRectangle width="487" height="39" as="alternateBounds" />
          </mxGeometry>
        </mxCell>
        <mxCell id="Bz9PuHuydpq6XIhBZxyH-59" value="" style="shape=tableRow;horizontal=0;startSize=0;swimlaneHead=0;swimlaneBody=0;top=0;left=0;bottom=0;right=0;collapsible=0;dropTarget=0;fillColor=none;points=[[0,0.5],[1,0.5]];portConstraint=eastwest;align=left;verticalAlign=middle;" vertex="1" parent="Bz9PuHuydpq6XIhBZxyH-1">
          <mxGeometry y="779" width="720" height="39" as="geometry" />
        </mxCell>
        <mxCell id="Bz9PuHuydpq6XIhBZxyH-60" value="Target investment id" style="shape=partialRectangle;html=1;whiteSpace=wrap;connectable=0;overflow=hidden;fillColor=none;top=0;left=0;bottom=0;right=0;pointerEvents=1;align=left;verticalAlign=middle;" vertex="1" parent="Bz9PuHuydpq6XIhBZxyH-59">
          <mxGeometry width="233" height="39" as="geometry">
            <mxRectangle width="233" height="39" as="alternateBounds" />
          </mxGeometry>
        </mxCell>
        <mxCell id="Bz9PuHuydpq6XIhBZxyH-61" value="The investment to switch to" style="shape=partialRectangle;html=1;whiteSpace=wrap;connectable=0;overflow=hidden;fillColor=none;top=0;left=0;bottom=0;right=0;pointerEvents=1;align=left;verticalAlign=middle;" vertex="1" parent="Bz9PuHuydpq6XIhBZxyH-59">
          <mxGeometry x="233" width="487" height="39" as="geometry">
            <mxRectangle width="487" height="39" as="alternateBounds" />
          </mxGeometry>
        </mxCell>
        <mxCell id="Bz9PuHuydpq6XIhBZxyH-62" value="" style="shape=tableRow;horizontal=0;startSize=0;swimlaneHead=0;swimlaneBody=0;top=0;left=0;bottom=0;right=0;collapsible=0;dropTarget=0;fillColor=none;points=[[0,0.5],[1,0.5]];portConstraint=eastwest;align=left;verticalAlign=middle;" vertex="1" parent="Bz9PuHuydpq6XIhBZxyH-1">
          <mxGeometry y="818" width="720" height="39" as="geometry" />
        </mxCell>
        <mxCell id="Bz9PuHuydpq6XIhBZxyH-63" value="Status" style="shape=partialRectangle;html=1;whiteSpace=wrap;connectable=0;overflow=hidden;fillColor=none;top=0;left=0;bottom=0;right=0;pointerEvents=1;align=left;verticalAlign=middle;" vertex="1" parent="Bz9PuHuydpq6XIhBZxyH-62">
          <mxGeometry width="233" height="39" as="geometry">
            <mxRectangle width="233" height="39" as="alternateBounds" />
          </mxGeometry>
        </mxCell>
        <mxCell id="Bz9PuHuydpq6XIhBZxyH-64" value="Default to &#39;Current&#39;. { Invested, AeDeferred, Current, Pending, Pending, Delete }" style="shape=partialRectangle;html=1;whiteSpace=wrap;connectable=0;overflow=hidden;fillColor=none;top=0;left=0;bottom=0;right=0;pointerEvents=1;align=left;verticalAlign=middle;" vertex="1" parent="Bz9PuHuydpq6XIhBZxyH-62">
          <mxGeometry x="233" width="487" height="39" as="geometry">
            <mxRectangle width="487" height="39" as="alternateBounds" />
          </mxGeometry>
        </mxCell>
        <mxCell id="Bz9PuHuydpq6XIhBZxyH-65" value="" style="shape=tableRow;horizontal=0;startSize=0;swimlaneHead=0;swimlaneBody=0;top=0;left=0;bottom=0;right=0;collapsible=0;dropTarget=0;fillColor=none;points=[[0,0.5],[1,0.5]];portConstraint=eastwest;align=left;verticalAlign=middle;" vertex="1" parent="Bz9PuHuydpq6XIhBZxyH-1">
          <mxGeometry y="857" width="720" height="39" as="geometry" />
        </mxCell>
        <mxCell id="Bz9PuHuydpq6XIhBZxyH-66" value="Accounting split" style="shape=partialRectangle;html=1;whiteSpace=wrap;connectable=0;overflow=hidden;fillColor=none;top=0;left=0;bottom=0;right=0;pointerEvents=1;align=left;verticalAlign=middle;" vertex="1" parent="Bz9PuHuydpq6XIhBZxyH-65">
          <mxGeometry width="233" height="39" as="geometry">
            <mxRectangle width="233" height="39" as="alternateBounds" />
          </mxGeometry>
        </mxCell>
        <mxCell id="Bz9PuHuydpq6XIhBZxyH-67" value="The &#39;section&#39; for accounting purpose. Set on receipt of monies into the scheme and then persisted." style="shape=partialRectangle;html=1;whiteSpace=wrap;connectable=0;overflow=hidden;fillColor=none;top=0;left=0;bottom=0;right=0;pointerEvents=1;align=left;verticalAlign=middle;" vertex="1" parent="Bz9PuHuydpq6XIhBZxyH-65">
          <mxGeometry x="233" width="487" height="39" as="geometry">
            <mxRectangle width="487" height="39" as="alternateBounds" />
          </mxGeometry>
        </mxCell>
        <mxCell id="Bz9PuHuydpq6XIhBZxyH-68" value="" style="shape=tableRow;horizontal=0;startSize=0;swimlaneHead=0;swimlaneBody=0;top=0;left=0;bottom=0;right=0;collapsible=0;dropTarget=0;fillColor=none;points=[[0,0.5],[1,0.5]];portConstraint=eastwest;align=left;verticalAlign=middle;" vertex="1" parent="Bz9PuHuydpq6XIhBZxyH-1">
          <mxGeometry y="896" width="720" height="40" as="geometry" />
        </mxCell>
        <mxCell id="Bz9PuHuydpq6XIhBZxyH-69" value="" style="shape=partialRectangle;html=1;whiteSpace=wrap;connectable=0;overflow=hidden;fillColor=none;top=0;left=0;bottom=0;right=0;pointerEvents=1;align=left;verticalAlign=middle;" vertex="1" parent="Bz9PuHuydpq6XIhBZxyH-68">
          <mxGeometry width="233" height="40" as="geometry">
            <mxRectangle width="233" height="40" as="alternateBounds" />
          </mxGeometry>
        </mxCell>
        <mxCell id="Bz9PuHuydpq6XIhBZxyH-70" value="" style="shape=partialRectangle;html=1;whiteSpace=wrap;connectable=0;overflow=hidden;fillColor=none;top=0;left=0;bottom=0;right=0;pointerEvents=1;align=left;verticalAlign=middle;" vertex="1" parent="Bz9PuHuydpq6XIhBZxyH-68">
          <mxGeometry x="233" width="487" height="40" as="geometry">
            <mxRectangle width="487" height="40" as="alternateBounds" />
          </mxGeometry>
        </mxCell>
        <mxCell id="Bz9PuHuydpq6XIhBZxyH-71" value="" style="shape=tableRow;horizontal=0;startSize=0;swimlaneHead=0;swimlaneBody=0;top=0;left=0;bottom=0;right=0;collapsible=0;dropTarget=0;fillColor=none;points=[[0,0.5],[1,0.5]];portConstraint=eastwest;align=left;verticalAlign=middle;" vertex="1" parent="Bz9PuHuydpq6XIhBZxyH-1">
          <mxGeometry y="936" width="720" height="40" as="geometry" />
        </mxCell>
        <mxCell id="Bz9PuHuydpq6XIhBZxyH-72" value="" style="shape=partialRectangle;html=1;whiteSpace=wrap;connectable=0;overflow=hidden;fillColor=none;top=0;left=0;bottom=0;right=0;pointerEvents=1;align=left;verticalAlign=middle;" vertex="1" parent="Bz9PuHuydpq6XIhBZxyH-71">
          <mxGeometry width="233" height="40" as="geometry">
            <mxRectangle width="233" height="40" as="alternateBounds" />
          </mxGeometry>
        </mxCell>
        <mxCell id="Bz9PuHuydpq6XIhBZxyH-73" value="" style="shape=partialRectangle;html=1;whiteSpace=wrap;connectable=0;overflow=hidden;fillColor=none;top=0;left=0;bottom=0;right=0;pointerEvents=1;align=left;verticalAlign=middle;" vertex="1" parent="Bz9PuHuydpq6XIhBZxyH-71">
          <mxGeometry x="233" width="487" height="40" as="geometry">
            <mxRectangle width="487" height="40" as="alternateBounds" />
          </mxGeometry>
        </mxCell>
      </root>
    </mxGraphModel>
  </diagram>
</mxfile>
